<svg width="28" height="27" viewBox="0 0 28 27" fill="none" xmlns="http://www.w3.org/2000/svg">
<path d="M8.30689 3.83936V4.66657H4.99805V22.8652H23.1967V4.66657H19.8878V3.83936H18.2334V4.66657H9.96131V3.83936H8.30689ZM6.65247 6.32099H8.30689V7.1482H9.96131V6.32099H18.2334V7.1482H19.8878V6.32099H21.5423V7.97541H6.65247V6.32099ZM6.65247 9.62983H21.5423V21.2108H6.65247V9.62983ZM11.6157 11.2842V12.9387H13.2702V11.2842H11.6157ZM14.9246 11.2842V12.9387H16.579V11.2842H14.9246ZM18.2334 11.2842V12.9387H19.8878V11.2842H18.2334ZM14.0974 13.7659V17.0747H17.4062V13.7659H14.0974ZM8.30689 14.5931V16.2475H9.96131V14.5931H8.30689ZM11.6157 14.5931V16.2475H13.2702V14.5931H11.6157ZM18.2334 14.5931V16.2475H19.8878V14.5931H18.2334ZM8.30689 17.9019V19.5564H9.96131V17.9019H8.30689ZM11.6157 17.9019V19.5564H13.2702V17.9019H11.6157ZM14.9246 17.9019V19.5564H16.579V17.9019H14.9246Z" fill="#DBDBDC"/>
</svg>
