<svg width="63" height="63" viewBox="0 0 63 63" fill="none" xmlns="http://www.w3.org/2000/svg">
<g id="eva:facebook-fill">
<path id="Vector" d="M44.625 9.18749C44.625 8.83939 44.4867 8.50555 44.2406 8.25941C43.9944 8.01327 43.6606 7.87499 43.3125 7.87499H36.75C33.4454 7.71038 30.2101 8.86039 27.7508 11.0738C25.2915 13.2871 23.8082 16.3839 23.625 19.6875V26.775H17.0625C16.7144 26.775 16.3806 26.9133 16.1344 27.1594C15.8883 27.4056 15.75 27.7394 15.75 28.0875V34.9125C15.75 35.2606 15.8883 35.5944 16.1344 35.8406C16.3806 36.0867 16.7144 36.225 17.0625 36.225H23.625V53.8125C23.625 54.1606 23.7633 54.4944 24.0094 54.7406C24.2556 54.9867 24.5894 55.125 24.9375 55.125H32.8125C33.1606 55.125 33.4944 54.9867 33.7406 54.7406C33.9867 54.4944 34.125 54.1606 34.125 53.8125V36.225H41.0025C41.2944 36.2292 41.5793 36.136 41.8123 35.9601C42.0452 35.7841 42.2129 35.5356 42.2888 35.2537L44.1787 28.4287C44.231 28.2348 44.238 28.0315 44.1993 27.8344C44.1605 27.6373 44.0771 27.4518 43.9554 27.292C43.8337 27.1323 43.6769 27.0026 43.4972 26.913C43.3175 26.8233 43.1196 26.7761 42.9188 26.775H34.125V19.6875C34.1903 19.0377 34.4954 18.4357 34.9808 17.9988C35.4662 17.562 36.097 17.3217 36.75 17.325H43.3125C43.6606 17.325 43.9944 17.1867 44.2406 16.9406C44.4867 16.6944 44.625 16.3606 44.625 16.0125V9.18749Z" fill="#F8F8F8"/>
</g>
</svg>
