<svg width="67" height="67" viewBox="0 0 67 67" fill="none" xmlns="http://www.w3.org/2000/svg">
<g id="ant-design:google-outlined">
<path id="Vector" d="M57.0326 30.7243L34.8445 29.3857L34.2943 38.5053L46.9697 39.27C46.2453 42.1848 44.4368 44.5781 41.8365 46.0977C39.6387 47.3827 36.8924 48.0553 33.7235 47.8641C27.5885 47.494 22.6493 43.0356 21.1307 37.3537C20.7492 35.9131 20.5701 34.386 20.6638 32.8323C20.7576 31.2786 21.1189 29.7842 21.6709 28.3999C23.8673 22.9482 29.3067 19.116 35.4417 19.4861C38.8992 19.6947 41.9286 21.0732 44.232 23.5543L51.3952 17.2004C47.5411 13.1465 42.3574 10.4916 36.0075 10.1085C26.8018 9.55316 18.5181 14.354 14.1784 21.8213C12.3898 24.9061 11.2638 28.45 11.0341 32.2575C10.8044 36.0651 11.4965 39.7125 12.9013 42.9899C16.3118 50.9248 23.9583 56.6867 33.1639 57.2421C39.5262 57.6259 44.9842 55.8349 49.0948 52.4711C53.7946 48.6374 56.7324 42.7497 57.1655 35.5707C57.2662 33.9003 57.2155 32.2885 57.0326 30.7243Z" fill="#F8F8F8"/>
</g>
</svg>
