<svg width="2516" height="2718" viewBox="0 0 2516 2718" fill="none" xmlns="http://www.w3.org/2000/svg">
<path fill-rule="evenodd" clip-rule="evenodd" d="M1197.58 3.64781C1510.37 -35.7868 1772.82 252.49 1953.72 482.69C2105.04 675.258 1772.84 1054.93 1848.48 1279.98C1910.05 1463.18 2308.43 1489.59 2354.86 1676.28C2421.62 1944.68 2627.6 2266.27 2434.66 2481.1C2244.31 2693.05 1790.05 2295.72 1488.86 2339.22C1235.13 2375.87 1060.43 2742.71 805.062 2716.49C522.016 2687.43 160.404 2651.06 35.1486 2423.61C-97.3728 2182.96 185.052 1919.52 219.618 1653.36C242.817 1474.74 143.765 1296.75 203.794 1125.03C268.377 940.288 433.1 809.392 567.782 657.417C771.638 427.386 871.382 44.7721 1197.58 3.64781Z" fill="#5E52AD"/>
<path fill-rule="evenodd" clip-rule="evenodd" d="M1280.17 191.817C1546.08 158.293 1769.2 403.362 1922.98 599.059C2051.62 762.764 1769.21 1085.53 1833.51 1276.85C1885.85 1432.59 2224.53 1455.04 2264 1613.75C2320.75 1841.92 2495.86 2115.3 2331.83 2297.94C2170.01 2478.12 1783.84 2140.34 1527.8 2177.32C1312.09 2208.48 1163.58 2520.33 946.487 2498.05C705.865 2473.35 398.453 2442.43 291.972 2249.06C179.313 2044.48 419.407 1820.53 448.792 1594.27C468.514 1442.41 384.308 1291.1 435.34 1145.12C490.243 988.071 630.277 876.793 744.772 747.597C918.073 552.044 1002.87 226.778 1280.17 191.817Z" fill="#2F317C"/>
<path fill-rule="evenodd" clip-rule="evenodd" d="M1141.93 561.752C1371.74 532.78 1564.56 744.573 1697.46 913.697C1808.64 1055.17 1564.57 1334.11 1620.14 1499.46C1665.38 1634.05 1958.06 1653.45 1992.17 1790.61C2041.22 1987.8 2192.55 2224.06 2050.8 2381.9C1910.95 2537.62 1577.21 2245.7 1355.94 2277.66C1169.52 2304.59 1041.17 2574.1 853.558 2554.84C645.608 2533.49 379.937 2506.77 287.914 2339.66C190.553 2162.86 398.046 1969.32 423.442 1773.77C440.485 1642.54 367.713 1511.77 411.816 1385.62C459.264 1249.89 580.283 1153.72 679.232 1042.07C829.002 873.067 902.282 591.966 1141.93 561.752Z" fill="#1F2041"/>
<g clip-path="url(#clip0_2223_118)">
<path opacity="0.1" d="M1062.24 744.087C1052.28 748.21 1042.07 753.502 1036.6 762.779C1030.8 772.579 1031.5 784.748 1032.57 796.086C1041.97 894.421 1066.74 999.003 1023.98 1088.08C1003.22 1131.29 968.503 1165.92 940.89 1205.17C913.277 1244.41 892.428 1293.41 905.249 1339.58C920.904 1395.99 979.335 1427.27 1018.72 1470.68C1044.5 1499.07 1062.58 1533.56 1086.63 1563.42C1110.68 1593.28 1143.64 1619.59 1182.04 1621.34C1237.27 1623.88 1282.2 1576.26 1336.35 1565.23C1391.82 1553.94 1447.68 1582.68 1492.66 1617.08C1537.64 1651.48 1578.55 1693.15 1630.96 1714.63C1688.83 1738.37 1754.07 1734.74 1815 1749C1870.47 1762 1921.54 1789.64 1976.61 1804.38C2031.68 1819.12 2096.23 1818.23 2138.9 1780.58C2194.51 1731.35 2190.14 1643.66 2225.65 1578.54C2258.64 1518.03 2323.22 1481.91 2366.69 1428.42C2444.91 1332.15 2442.35 1185 2375.94 1080.29C2309.53 975.588 2189.23 912.19 2066.22 895.683C2010.74 888.252 1953.62 889.268 1900.29 872.36C1757.54 827.131 1672.59 665.074 1526.85 631.352C1434.21 609.953 1344.11 647.013 1265.2 692.627C1196.71 732.226 1133.52 714.565 1062.24 744.087Z" fill="#E83F5B"/>
<path d="M1201.35 1061.77C1201.35 1061.77 1148.76 1111.32 1092.32 1112.8C1068.62 1113.27 1045.71 1121.41 1027.03 1135.99C1018.2 1142.95 1010.03 1150.71 1002.62 1159.17" stroke="#535461" stroke-width="11.4241" stroke-miterlimit="10"/>
<path d="M967.026 1160.39C974.607 1156.54 1003.55 1159.09 1003.55 1159.09C1003.55 1159.09 988.537 1183.94 980.956 1187.78C979.14 1188.86 977.123 1189.55 975.029 1189.81C972.934 1190.08 970.808 1189.91 968.782 1189.32C966.756 1188.73 964.873 1187.73 963.249 1186.38C961.626 1185.04 960.297 1183.37 959.345 1181.49C958.393 1179.61 957.838 1177.55 957.715 1175.45C957.592 1173.34 957.903 1171.24 958.629 1169.26C959.355 1167.28 960.48 1165.47 961.935 1163.95C963.39 1162.42 965.144 1161.21 967.088 1160.39H967.026Z" fill="#E83F5B"/>
<path d="M997.49 1116.46C1005.95 1117.36 1028.85 1135.2 1028.85 1135.2C1028.85 1135.2 1002.65 1147.91 994.269 1147.03C990.348 1146.44 986.805 1144.36 984.38 1141.23C981.954 1138.1 980.832 1134.15 981.247 1130.21C981.662 1126.27 983.582 1122.65 986.607 1120.09C989.633 1117.52 993.531 1116.23 997.49 1116.46V1116.46Z" fill="#E83F5B"/>
<path d="M1069.73 1081.06C1076.57 1086.09 1087.33 1113.05 1087.33 1113.05C1087.33 1113.05 1058.34 1110.85 1051.5 1105.83C1048.42 1103.34 1046.41 1099.77 1045.9 1095.84C1045.39 1091.92 1046.42 1087.95 1048.77 1084.76C1051.11 1081.57 1054.6 1079.4 1058.51 1078.72C1062.41 1078.03 1066.43 1078.87 1069.73 1081.06V1081.06Z" fill="#E83F5B"/>
<path d="M1130.42 1066.59C1138.02 1070.39 1153.18 1095.14 1153.18 1095.14C1153.18 1095.14 1124.24 1097.86 1116.65 1094.06C1114.73 1093.23 1113.01 1092.01 1111.57 1090.49C1110.14 1088.96 1109.04 1087.17 1108.33 1085.2C1107.61 1083.24 1107.31 1081.15 1107.43 1079.07C1107.55 1076.98 1108.1 1074.95 1109.04 1073.08C1109.97 1071.21 1111.28 1069.55 1112.88 1068.21C1114.48 1066.86 1116.33 1065.85 1118.33 1065.25C1120.33 1064.64 1122.44 1064.44 1124.52 1064.67C1126.6 1064.91 1128.61 1065.56 1130.42 1066.59V1066.59Z" fill="#E83F5B"/>
<path d="M1044.95 1163.22C1047.48 1155.11 1040.08 1127.05 1040.08 1127.05C1040.08 1127.05 1018.08 1146 1015.55 1154.11C1014.84 1156.06 1014.53 1158.15 1014.65 1160.22C1014.76 1162.3 1015.3 1164.34 1016.23 1166.2C1017.16 1168.07 1018.45 1169.72 1020.04 1171.07C1021.63 1172.42 1023.47 1173.44 1025.47 1174.05C1027.46 1174.67 1029.55 1174.88 1031.63 1174.66C1033.7 1174.45 1035.71 1173.81 1037.53 1172.8C1039.35 1171.79 1040.95 1170.41 1042.23 1168.77C1043.5 1167.12 1044.43 1165.23 1044.95 1163.22V1163.22Z" fill="#E83F5B"/>
<path d="M1115.72 1145.32C1115.72 1136.83 1100.24 1112.28 1100.24 1112.28C1100.24 1112.28 1084.92 1136.89 1084.94 1145.42C1084.95 1149.5 1086.58 1153.4 1089.48 1156.28C1092.38 1159.16 1096.31 1160.77 1100.39 1160.75C1104.48 1160.74 1108.39 1159.11 1111.27 1156.22C1114.16 1153.32 1115.77 1149.4 1115.75 1145.32H1115.72Z" fill="#E83F5B"/>
<path d="M1182.12 1118.62C1183.54 1110.25 1172.44 1083.43 1172.44 1083.43C1172.44 1083.43 1153.17 1105.16 1151.77 1113.52C1151.29 1117.45 1152.35 1121.41 1154.72 1124.58C1157.1 1127.74 1160.6 1129.88 1164.5 1130.53C1168.41 1131.19 1172.42 1130.32 1175.7 1128.11C1178.98 1125.89 1181.28 1122.5 1182.12 1118.63V1118.62Z" fill="#E83F5B"/>
<path d="M1269.69 930.545C1269.69 930.545 1206.35 895.808 1187.52 842.594C1179.78 820.217 1164.98 800.95 1145.34 787.688C1135.97 781.461 1126.04 776.106 1115.69 771.688" stroke="#535461" stroke-width="11.4241" stroke-miterlimit="10"/>
<path d="M1103.67 738.228C1109.67 744.243 1116.12 772.534 1116.12 772.534C1116.12 772.534 1087.83 765.919 1081.84 759.889C1079.19 756.954 1077.78 753.115 1077.89 749.167C1078 745.219 1079.62 741.465 1082.43 738.681C1085.23 735.898 1089.01 734.298 1092.96 734.213C1096.92 734.129 1100.75 735.566 1103.67 738.228V738.228Z" fill="#E83F5B"/>
<path d="M1154.91 753.658C1156.67 761.965 1146.7 789.211 1146.7 789.211C1146.7 789.211 1126.56 768.304 1124.8 759.981C1124.28 757.968 1124.17 755.87 1124.48 753.815C1124.8 751.76 1125.52 749.789 1126.62 748.022C1127.72 746.255 1129.16 744.728 1130.87 743.534C1132.57 742.341 1134.5 741.504 1136.54 741.075C1138.58 740.646 1140.68 740.635 1142.72 741.04C1144.77 741.446 1146.71 742.26 1148.42 743.435C1150.14 744.609 1151.6 746.12 1152.72 747.874C1153.84 749.628 1154.59 751.591 1154.92 753.642L1154.91 753.658Z" fill="#E83F5B"/>
<path d="M1210.84 811.487C1208.16 819.533 1185.77 838.04 1185.77 838.04C1185.77 838.04 1178.96 809.841 1181.64 801.78C1182.93 797.903 1185.71 794.697 1189.37 792.867C1193.03 791.036 1197.26 790.731 1201.14 792.018C1205.03 793.306 1208.24 796.08 1210.07 799.731C1211.9 803.382 1212.21 807.611 1210.92 811.487H1210.84Z" fill="#E83F5B"/>
<path d="M1243.33 864.639C1242.05 873.024 1223.11 895.038 1223.11 895.038C1223.11 895.038 1211.61 868.393 1212.89 860.009C1213.11 857.937 1213.74 855.929 1214.75 854.108C1215.77 852.288 1217.14 850.691 1218.79 849.416C1220.44 848.141 1222.33 847.213 1224.35 846.69C1226.37 846.166 1228.47 846.058 1230.54 846.37C1232.6 846.683 1234.58 847.411 1236.35 848.509C1238.12 849.608 1239.65 851.055 1240.85 852.761C1242.04 854.468 1242.88 856.4 1243.31 858.439C1243.73 860.478 1243.74 862.582 1243.33 864.624V864.639Z" fill="#E83F5B"/>
<path d="M1124.92 813.133C1133.43 813.041 1157.9 797.38 1157.9 797.38C1157.9 797.38 1133.07 782.303 1124.57 782.395C1120.48 782.442 1116.58 784.108 1113.72 787.026C1110.87 789.945 1109.29 793.876 1109.34 797.957C1109.38 802.037 1111.05 805.931 1113.98 808.783C1116.9 811.635 1120.84 813.211 1124.92 813.164V813.133Z" fill="#E83F5B"/>
<path d="M1163.69 874.885C1171.77 872.254 1190.43 850.009 1190.43 850.009C1190.43 850.009 1162.21 843.04 1154.14 845.671C1152.15 846.238 1150.29 847.201 1148.68 848.502C1147.07 849.803 1145.73 851.415 1144.76 853.242C1143.79 855.068 1143.2 857.072 1143.02 859.133C1142.84 861.194 1143.08 863.27 1143.72 865.237C1144.36 867.203 1145.39 869.02 1146.76 870.579C1148.12 872.138 1149.78 873.406 1151.65 874.308C1153.51 875.21 1155.54 875.728 1157.61 875.83C1159.68 875.931 1161.75 875.615 1163.69 874.9V874.885Z" fill="#E83F5B"/>
<path d="M1209.61 929.745C1218.02 928.515 1240.18 909.746 1240.18 909.746C1240.18 909.746 1213.56 898.115 1205.16 899.346C1203.09 899.559 1201.09 900.188 1199.27 901.194C1197.45 902.2 1195.85 903.564 1194.58 905.202C1193.3 906.841 1192.37 908.72 1191.84 910.727C1191.31 912.735 1191.19 914.828 1191.49 916.882C1191.79 918.936 1192.51 920.908 1193.59 922.678C1194.68 924.449 1196.11 925.982 1197.81 927.186C1199.5 928.389 1201.42 929.237 1203.45 929.68C1205.48 930.122 1207.58 930.15 1209.63 929.761L1209.61 929.745Z" fill="#E83F5B"/>
<path d="M1705.63 1773.41C2013.7 1773.41 2263.44 1524.08 2263.44 1216.51C2263.44 908.935 2013.7 659.599 1705.63 659.599C1397.56 659.599 1147.82 908.935 1147.82 1216.51C1147.82 1524.08 1397.56 1773.41 1705.63 1773.41Z" fill="url(#paint0_linear_2223_118)"/>
<path d="M1705.63 1764.18C2008.59 1764.18 2254.19 1518.98 2254.19 1216.51C2254.19 914.032 2008.59 668.829 1705.63 668.829C1402.67 668.829 1157.07 914.032 1157.07 1216.51C1157.07 1518.98 1402.67 1764.18 1705.63 1764.18Z" fill="#E83F5B"/>
<path d="M1705.63 1651.88C1946.47 1651.88 2141.71 1456.96 2141.71 1216.51C2141.71 976.057 1946.47 781.134 1705.63 781.134C1464.79 781.134 1269.55 976.057 1269.55 1216.51C1269.55 1456.96 1464.79 1651.88 1705.63 1651.88Z" fill="#DDE1EC"/>
<path opacity="0.3" d="M1717.96 858.055H1693.3V1242.66H1717.96V858.055Z" fill="#535461"/>
<g opacity="0.1">
<path opacity="0.1" d="M2080.07 1207.28H1731.83V1238.04H2080.07V1207.28Z" fill="black"/>
<path opacity="0.1" d="M1485.96 1092.16L1471.66 1119.42L1690.78 1233.98L1705.08 1206.72L1485.96 1092.16Z" fill="black"/>
<path opacity="0.1" d="M1705.63 1268.81C1731.16 1268.81 1751.86 1248.15 1751.86 1222.66C1751.86 1197.17 1731.16 1176.51 1705.63 1176.51C1680.1 1176.51 1659.4 1197.17 1659.4 1222.66C1659.4 1248.15 1680.1 1268.81 1705.63 1268.81Z" fill="black"/>
</g>
<path d="M2080.07 1201.12H1731.83V1231.89H2080.07V1201.12Z" fill="#535461"/>
<path d="M1705.18 1200.61L1486.06 1086.04L1471.76 1113.3L1690.88 1227.86L1705.18 1200.61Z" fill="#535461"/>
<path d="M1705.63 1262.66C1731.16 1262.66 1751.86 1242 1751.86 1216.51C1751.86 1191.02 1731.16 1170.35 1705.63 1170.35C1680.1 1170.35 1659.4 1191.02 1659.4 1216.51C1659.4 1242 1680.1 1262.66 1705.63 1262.66Z" fill="#535461"/>
<g opacity="0.1">
<path opacity="0.1" d="M1303.42 1268.81C1303.42 1028.36 1498.66 833.44 1739.5 833.44C1807.1 833.38 1873.78 849.036 1934.27 879.167C1994.76 909.298 2047.39 953.076 2087.99 1007.04C2013.78 872.393 1870.48 781.134 1705.6 781.134C1464.76 781.134 1269.52 976.051 1269.52 1216.51C1269.38 1310.97 1300.15 1402.89 1357.15 1478.28C1321.8 1414.11 1303.32 1342.05 1303.42 1268.81V1268.81Z" fill="black"/>
</g>
<path d="M2108.55 896.238C2103.37 891.269 2059.79 923.93 2059.79 923.93C2059.79 923.93 2044.28 926.761 2047.97 937.391C2051.67 948.021 2031.72 1007.56 2031.72 1007.56L2023.6 996.22C2024.38 982.913 2020.72 973.482 2017.14 967.606C2016.85 967.129 2016.55 966.667 2016.26 966.236L2017.68 965.744C2017.14 958.483 2005.51 947.421 1999.33 942.006C1999.33 941.222 1999.33 940.468 1999.33 939.668C1999.71 930.991 2003.19 921.838 1999.33 913.976C1994.95 905.007 1982.15 900.5 1981.07 890.654C1980.42 884.777 1984.4 879.47 1986.15 873.808C1990.34 860.27 1981.64 846.455 1973.32 834.794C1970.5 830.422 1967.07 826.474 1963.13 823.071C1959.38 820.334 1955.26 818.138 1950.9 816.548C1938.71 811.625 1926.24 809.149 1913.67 805.779C1901.6 802.58 1890.48 801.056 1878.23 805.072C1875.32 805.854 1872.67 807.375 1870.52 809.487C1867.61 812.748 1867.23 817.394 1865.31 821.287C1862.23 827.548 1855.59 831.286 1849.72 835.302C1843.85 839.317 1837.96 844.824 1837.93 851.747C1837.93 861.578 1849.18 867.762 1852.94 876.916C1856.45 885.439 1852.94 894.931 1850.98 903.915C1850.17 906.819 1850.09 909.88 1850.75 912.822C1851.53 915.015 1852.7 917.048 1854.2 918.822C1856.53 921.899 1859.03 924.761 1861.51 927.684L1860.37 928.13C1839.69 926.007 1826.39 952.221 1826.39 952.221C1827.35 952.421 1828.26 952.652 1829.15 952.914L1828.27 954.052C1822.02 962.154 1816.92 971.073 1813.09 980.559L1796.14 1003.24C1796.14 1003.24 1792.44 946.529 1801.32 933.776C1810.2 921.022 1793.2 913.222 1793.2 913.222C1793.2 913.222 1756.22 872.116 1751.09 875.654C1745.96 879.193 1763.65 923.853 1779.16 930.945C1779.16 930.945 1780.7 945.114 1777.62 954.329C1775.76 960.16 1765.8 1021.67 1765.8 1021.67C1765.8 1021.67 1756.94 1073.4 1797.58 1047.82C1823.97 1031.23 1841.03 1002.68 1849.72 984.743C1850.33 983.482 1850.9 982.277 1851.43 981.128C1851.83 983.031 1852.11 984.958 1852.25 986.897L1853.79 1046.17C1854.18 1060.83 1850.97 1075.37 1844.45 1088.51L1826.34 1125.17L1828.36 1125.79L1827.15 1127.54C1815.22 1145.06 1794.94 1184.46 1836.68 1204.54L1892.16 1211.63L1889.2 1225.8C1889.2 1225.8 1866.3 1269.03 1859.64 1298.8C1855.51 1317.03 1849.05 1334.65 1840.43 1351.24L1842.14 1352.15C1841.78 1352.55 1841.41 1352.96 1841.06 1353.39C1837.7 1357.17 1835.47 1361.82 1834.65 1366.81L1827.13 1377.46C1827.13 1377.46 1824.17 1421.39 1830.09 1432.04C1833.33 1437.85 1844.07 1441.55 1853.2 1443.7C1866.76 1446.91 1877.7 1432.93 1870.51 1421.41L1870.41 1421.25H1870.28C1868.74 1414.1 1864.02 1391.9 1865.56 1383.47C1865.99 1381.07 1866.39 1378.69 1866.59 1376.26C1866.96 1373.06 1867.94 1369.97 1869.46 1367.13C1869.71 1366.66 1869.97 1366.19 1870.23 1365.73L1871.03 1366.07C1873.51 1367.13 1875.96 1368.13 1878.29 1369.01C1874.68 1372.29 1872.13 1379.07 1875.21 1393.02C1875.21 1393.02 1875.5 1427.93 1878.17 1433.42C1880.83 1438.92 1910.66 1446.18 1915.84 1440.51C1921.02 1434.85 1912.51 1415.35 1912.51 1415.35L1912.25 1415.53C1910.54 1404.22 1908.43 1383.98 1913.62 1376.01C1915.72 1372.79 1917.75 1369.47 1919.57 1366.36L1920.69 1364.44C1930.34 1369.24 1940.54 1372.86 1946.12 1370.35C1946.12 1370.35 1970.5 1313.64 1969.02 1306.56C1967.54 1299.49 2006.69 1219.38 2006.69 1219.38C2006.69 1219.38 2039.93 1182.46 1999.31 1157.02C1986.41 1148.91 1977.01 1143.46 1970.19 1139.79L1964.47 1109.94C1961.53 1094.29 1962.06 1078.19 1966.01 1062.77L1972.18 1039.3L1972.68 1037.3C1972.68 1037.3 1988.2 1005.4 1987.46 990.513C1987.41 989.356 1987.54 988.197 1987.85 987.082C1988.02 987.79 1988.2 988.528 1988.4 989.297C1992.48 1004.78 1997.85 1019.88 2004.46 1034.47C2016.25 1061.02 2033.74 1058.91 2043.32 1055.14C2045.37 1054.35 2047.19 1053.06 2048.62 1051.39C2050.05 1049.72 2051.04 1047.72 2051.5 1045.57C2054.95 1029.05 2064.43 982.759 2065.03 969.975C2065.57 959.978 2066.8 950.031 2068.73 940.206C2093.05 926.007 2113.72 901.207 2108.55 896.238Z" fill="url(#paint1_linear_2223_118)"/>
<path d="M1927.66 1350.41C1927.66 1350.41 1924.41 1356.92 1919.96 1364.73C1918.21 1367.81 1916.27 1371.12 1914.29 1374.3C1907.24 1385.55 1914.29 1421.38 1914.29 1421.38L1898.88 1423.48L1883.47 1415.79L1880.65 1389.79V1370.78L1898.21 1351.16L1905.92 1342.67L1927.66 1350.41Z" fill="#F8BDC5"/>
<g opacity="0.1">
<path opacity="0.1" d="M1927.66 1350.41C1927.66 1350.41 1924.41 1356.92 1919.96 1364.73C1913.15 1361.1 1906.58 1357.07 1900.26 1352.64L1898.91 1351.69L1898.18 1351.16L1905.89 1342.67L1927.66 1350.41Z" fill="black"/>
</g>
<path d="M2002.99 1219C2002.99 1219 1965.69 1298.4 1967.11 1305.43C1968.52 1312.46 1945.29 1368.67 1945.29 1368.67C1939.99 1371.16 1930.25 1367.58 1921.06 1362.83C1914.14 1359.14 1907.45 1355.03 1901.03 1350.52L1899.68 1349.56L1898.86 1348.98L1960.1 1179.63L1905.92 1139.95L1901.91 1137.02L1877.69 1119.17L1951.65 1132.52C1951.65 1132.52 1954.22 1132.2 1967.83 1139.8C1974.36 1143.45 1983.44 1148.91 1995.98 1157.12C2034.65 1182.46 2002.99 1219 2002.99 1219Z" fill="#5E52AD"/>
<g opacity="0.03">
<path opacity="0.03" d="M2002.99 1219C2002.99 1219 1965.69 1298.4 1967.11 1305.43C1968.52 1312.46 1945.29 1368.67 1945.29 1368.67C1939.99 1371.16 1930.25 1367.58 1921.06 1362.83C1914.14 1359.14 1907.45 1355.03 1901.03 1350.52L1899.68 1349.56L1898.86 1348.98L1960.1 1179.63L1905.92 1139.95L1901.91 1137.02L1877.69 1119.17L1951.65 1132.52C1951.65 1132.52 1954.22 1132.2 1967.83 1139.8C1974.36 1143.45 1983.44 1148.91 1995.98 1157.12C2034.65 1182.46 2002.99 1219 2002.99 1219Z" fill="black"/>
</g>
<path d="M1889.66 1364.46C1889.66 1364.46 1871.35 1361.64 1877.7 1391.16C1877.7 1391.16 1877.98 1425.78 1880.52 1431.16C1883.07 1436.55 1911.5 1443.81 1916.41 1438.19C1921.33 1432.58 1913.24 1413.25 1913.24 1413.25C1913.24 1413.25 1892.48 1428.36 1886.84 1412.19C1881.2 1396.02 1889.66 1364.46 1889.66 1364.46Z" fill="#5D3E53"/>
<path d="M1876.98 1358.84C1874.98 1360.74 1873.36 1362.99 1872.19 1365.49C1870.73 1368.31 1869.81 1371.38 1869.46 1374.53C1869.27 1376.93 1868.89 1379.32 1868.49 1381.69C1866.73 1391.7 1873.47 1421.38 1873.47 1421.38L1846.72 1425.59L1836.87 1415.05L1834.76 1391.87C1837.39 1383.92 1838.81 1375.63 1838.98 1367.26C1838.98 1361.21 1842.06 1355.81 1845.14 1351.87C1847.23 1349.24 1849.63 1346.87 1852.28 1344.81C1852.28 1344.81 1882.62 1353.92 1876.98 1358.84Z" fill="#F8BDC5"/>
<g opacity="0.1">
<path opacity="0.1" d="M1876.98 1358.84C1874.98 1360.74 1873.36 1362.99 1872.19 1365.49C1861.23 1360.55 1849.72 1354.32 1845.53 1352.01L1845.21 1351.84C1847.29 1349.21 1849.69 1346.84 1852.34 1344.78C1852.34 1344.78 1882.62 1353.92 1876.98 1358.84Z" fill="black"/>
</g>
<path d="M1963.56 1197.92C1963.56 1197.92 1945.98 1230.95 1934.7 1258.35C1927.31 1276.35 1912.02 1319.21 1902.34 1346.5L1900.93 1350.53C1896.67 1362.61 1893.84 1370.78 1893.84 1370.78C1891.96 1370.79 1890.1 1370.52 1888.31 1369.96C1886.64 1369.52 1884.78 1368.92 1882.79 1368.18L1880.55 1367.33C1878.34 1366.47 1875.93 1365.47 1873.64 1364.43C1862.45 1359.44 1850.52 1352.95 1846.19 1350.58L1844.56 1349.67C1852.82 1333.15 1858.98 1315.67 1862.91 1297.63C1869.24 1268.12 1891.06 1225.32 1891.06 1225.32L1893.88 1211.26L1841.09 1204.23C1801.32 1184.38 1820.64 1145.26 1832 1127.89C1833.94 1124.88 1836.03 1121.97 1838.27 1119.17L1880.51 1128.4C1880.51 1128.4 1887.16 1130.52 1901.96 1137.06L1908.75 1140.14C1917.04 1143.94 1927.24 1148.83 1939.57 1155.11C1981.14 1176.09 1963.56 1197.92 1963.56 1197.92Z" fill="#5E52AD"/>
<path d="M1873.2 1419.27C1874.71 1421.8 1875.43 1424.73 1875.28 1427.67C1875.12 1430.61 1874.1 1433.44 1872.34 1435.8C1870.57 1438.17 1868.15 1439.95 1865.37 1440.94C1862.59 1441.93 1859.58 1442.08 1856.72 1441.36C1848.07 1439.22 1837.82 1435.56 1834.74 1429.79C1829.12 1419.25 1831.92 1375.69 1831.92 1375.69L1839.32 1364.79C1839.32 1364.79 1835.45 1412.93 1844.6 1417.1C1853.76 1421.27 1873.11 1419.05 1873.11 1419.05L1873.2 1419.27Z" fill="#5D3E53"/>
<path d="M1880.69 808.195C1877.88 808.976 1875.33 810.489 1873.3 812.579C1870.52 815.81 1870.21 820.425 1868.33 824.286C1865.41 830.44 1859.09 834.209 1853.48 838.132C1847.87 842.055 1842.28 847.578 1842.25 854.439C1842.25 864.193 1853.03 870.316 1856.55 879.377C1859.89 887.838 1856.55 897.238 1854.68 906.146C1853.9 909.03 1853.83 912.058 1854.47 914.976C1855.2 917.141 1856.32 919.157 1857.76 920.93C1864.56 930.16 1873 938.345 1877.55 948.852C1881 956.837 1881.96 965.652 1882.87 974.313C1884.18 986.774 1885.49 999.466 1883.11 1011.77C1882.88 1012.51 1882.88 1013.3 1883.11 1014.03C1883.52 1014.74 1884.15 1015.28 1884.92 1015.57C1889.4 1017.75 1894.28 1019 1899.26 1019.24C1904.24 1019.49 1909.21 1018.72 1913.89 1017C1918.57 1015.27 1922.84 1012.62 1926.47 1009.21C1930.09 1005.79 1932.99 1001.68 1934.98 997.112C1938.06 990.143 1939.25 981.728 1945.35 977.205C1946.06 976.617 1946.92 976.229 1947.83 976.082C1949.27 976.122 1950.66 976.588 1951.84 977.421C1959.76 981.697 1969.36 981.82 1978.19 980.067C1983.52 979.005 1988.97 977.113 1992.5 972.959C1999.45 964.713 1995.58 952.39 1996.05 941.637C1996.42 933.037 1999.73 923.961 1996.05 916.176C1991.88 907.284 1979.67 902.823 1978.65 893.1C1978.03 887.285 1981.82 882.008 1983.5 876.408C1987.49 862.978 1979.2 849.286 1971.28 837.732C1968.62 833.422 1965.36 829.512 1961.59 826.117C1958.04 823.416 1954.12 821.24 1949.94 819.656C1938.34 814.779 1926.5 812.318 1914.5 808.995C1903.01 805.718 1892.42 804.195 1880.69 808.195Z" fill="#85555C"/>
<path d="M1939.63 1008.9H1898.8V942.837C1900.01 936.493 1900.72 930.063 1900.93 923.607C1900.93 921.438 1900.93 919.222 1900.93 916.992C1900.54 909.115 1898.91 901.254 1894.62 896.454C1883.36 883.808 1931.22 885.916 1931.22 885.916C1932.69 891.722 1934.59 897.41 1936.92 902.93C1940.39 911.544 1945 919.652 1950.63 927.037C1955.59 933.609 1961.94 939.004 1969.23 942.837C1997.34 956.898 1939.63 1008.9 1939.63 1008.9Z" fill="#F8BDC5"/>
<g opacity="0.1">
<path opacity="0.1" d="M1936.87 902.93C1932.73 908.328 1927.18 912.49 1920.84 914.969C1914.49 917.447 1907.59 918.146 1900.88 916.992C1900.49 909.115 1898.86 901.254 1894.58 896.454C1883.31 883.808 1931.17 885.916 1931.17 885.916C1932.64 891.722 1934.55 897.41 1936.87 902.93V902.93Z" fill="black"/>
</g>
<path d="M1907.24 915.453C1927.85 915.453 1944.55 898.778 1944.55 878.208C1944.55 857.638 1927.85 840.963 1907.24 840.963C1886.64 840.963 1869.94 857.638 1869.94 878.208C1869.94 898.778 1886.64 915.453 1907.24 915.453Z" fill="#F8BDC5"/>
<path d="M2062.09 942.145C2060.26 951.891 2059.08 961.749 2058.58 971.652C2058.01 984.313 2048.98 1030.22 2045.68 1046.6C2045.26 1048.7 2044.33 1050.67 2042.97 1052.33C2041.61 1053.98 2039.86 1055.28 2037.88 1056.1C2028.73 1059.83 2012.09 1061.93 2000.9 1035.6C1994.59 1021.12 1989.47 1006.15 1985.6 990.836C1984.23 985.689 1983.2 980.457 1982.52 975.175L2007.17 961.821C2009.49 963.989 2011.46 966.506 2013 969.282C2016.4 975.113 2019.9 984.467 2019.16 997.651L2026.86 1008.9C2026.86 1008.9 2045.86 949.868 2042.27 939.329C2038.68 928.791 2053.54 925.976 2053.54 925.976C2053.54 925.976 2095.06 893.669 2099.99 898.577C2104.93 903.484 2085.31 928.084 2062.09 942.145Z" fill="#F8BDC5"/>
<path d="M1860.09 970.252C1858.17 975.748 1855.96 981.14 1853.46 986.405C1845.17 1004.2 1828.93 1032.56 1803.79 1048.96C1765.08 1074.25 1773.52 1022.96 1773.52 1022.96C1773.52 1022.96 1783 961.975 1784.79 956.206C1787.61 947.068 1786.19 933.022 1786.19 933.022C1771.41 925.991 1754.52 881.731 1759.44 878.208C1764.35 874.685 1799.5 915.453 1799.5 915.453C1799.5 915.453 1815.7 923.145 1807.21 935.837C1798.72 948.529 1802.28 1004.7 1802.28 1004.7L1818.56 982.251C1822.19 972.885 1827.05 964.048 1833.03 955.975C1836.11 951.775 1838.27 949.237 1838.27 949.237L1860.09 970.252Z" fill="#F8BDC5"/>
<g opacity="0.1">
<path opacity="0.1" d="M2013.01 969.283C2007.83 971.19 1987.79 979.267 1985.57 990.82C1984.2 985.673 1983.17 980.442 1982.49 975.159L2007.14 961.806C2009.48 963.975 2011.46 966.498 2013.01 969.283Z" fill="black"/>
</g>
<g opacity="0.1">
<path opacity="0.1" d="M1860.09 970.251C1858.17 975.748 1855.96 981.14 1853.47 986.405C1852.51 979.451 1848.58 961.667 1833.03 955.929C1836.11 951.729 1838.27 949.191 1838.27 949.191L1860.09 970.251Z" fill="black"/>
</g>
<g opacity="0.1">
<path opacity="0.1" d="M1939.63 1008.9H1898.8V942.837C1900.01 936.493 1900.72 930.063 1900.93 923.607C1909.32 931.699 1907.24 944.237 1907.24 944.237L1929.06 993.466L1939.63 949.944L1936.12 944.329L1950.6 927.13C1955.56 933.701 1961.91 939.096 1969.2 942.929C1997.34 956.898 1939.63 1008.9 1939.63 1008.9Z" fill="black"/>
</g>
<g opacity="0.1">
<path opacity="0.1" d="M1968.48 1143.79C1968.48 1143.79 1936.49 1141.25 1908.74 1140.05L1905.95 1139.92C1902 1139.77 1898.24 1139.65 1894.56 1139.55C1867.63 1138.91 1837.16 1129.51 1831.98 1127.86C1833.93 1124.86 1836.03 1121.96 1838.27 1119.17L1880.51 1128.4C1880.51 1128.4 1887.16 1130.52 1901.96 1137.06L1877.69 1119.17L1951.65 1132.52C1951.65 1132.52 1954.22 1132.2 1967.83 1139.8L1968.48 1143.79Z" fill="black"/>
</g>
<path d="M1939.63 952.683L1936.12 947.068L1951.74 928.407C1951.74 928.407 1983.96 944.175 1992.41 940.714C1992.41 940.714 2012.83 957.637 2013.52 967.421C2013.52 967.421 1983.96 977.251 1984.66 992.036C1985.35 1006.82 1970.64 1038.4 1970.64 1038.4L1964.47 1063.66C1960.68 1078.97 1960.15 1094.91 1962.93 1110.43L1968.56 1141.71C1968.56 1141.71 1924.21 1138.2 1894.59 1137.49C1864.98 1136.79 1831.25 1125.55 1831.25 1125.55L1848.52 1089.26C1854.75 1076.17 1857.8 1061.79 1857.43 1047.3L1855.88 988.543C1855.88 988.543 1854.48 959.037 1831.23 954.114C1831.23 954.114 1843.9 928.114 1863.59 930.222C1863.59 930.222 1892.28 918.269 1900.8 926.345C1909.32 934.422 1907.23 947.083 1907.23 947.083L1929.05 996.312L1939.63 952.683Z" fill="#ED677B"/>
<g opacity="0.1">
<path opacity="0.1" d="M1880.32 870.531C1885.98 870.531 1890.42 864.547 1896.07 864.855C1899 865.009 1901.51 866.87 1903.93 868.547C1913.07 874.867 1923.24 879.552 1933.99 882.393C1938.17 883.5 1942.59 884.331 1946.78 883.316C1950.97 882.3 1954.9 879.008 1955.38 874.716C1955.5 872.824 1955.25 870.928 1954.64 869.132C1949.9 852.628 1939.16 838.482 1924.53 829.456C1918.68 825.871 1911.53 823.133 1905.04 825.379C1899.18 827.394 1895.41 832.871 1891.17 837.379C1887.98 840.754 1884.35 843.692 1880.38 846.117C1877.3 847.978 1872.68 849.194 1870.91 852.609C1867.56 858.978 1872.82 870.47 1880.32 870.531Z" fill="black"/>
</g>
<path d="M1880.32 869.131C1885.98 869.131 1890.42 863.147 1896.07 863.455C1899 863.608 1901.51 865.47 1903.93 867.147C1913.07 873.467 1923.24 878.152 1933.99 880.992C1938.17 882.1 1942.59 882.931 1946.78 881.916C1950.97 880.9 1954.9 877.608 1955.38 873.316C1955.5 871.424 1955.25 869.528 1954.64 867.731C1949.9 851.228 1939.16 837.082 1924.53 828.056C1918.68 824.471 1911.53 821.733 1905.04 823.979C1899.18 825.994 1895.41 831.471 1891.17 835.978C1887.98 839.354 1884.35 842.292 1880.38 844.717C1877.3 846.578 1872.68 847.793 1870.91 851.209C1867.56 857.639 1872.82 869.054 1880.32 869.131Z" fill="#85555C"/>
<path opacity="0.05" d="M1863.27 1029.62C1863.27 1029.62 1897.75 1042.26 1920.28 1032.43L1931.54 1033.14C1931.54 1033.14 1950.26 1046.25 1970.07 1040.39" fill="black"/>
<path opacity="0.05" d="M2026.56 1008.54C2026.56 1008.54 2020.93 1021.9 2023.74 1026.11Z" fill="black"/>
<path opacity="0.05" d="M1802.03 1004.33C1802.03 1004.33 1804.85 1017.68 1802.03 1021.9Z" fill="black"/>
<path d="M2385.76 1308.61C2385.76 1308.61 2321.29 1372.98 2357.68 1468.48C2394.08 1563.99 2295.31 1722.81 2295.31 1722.81C2295.31 1722.81 2296.37 1722.66 2298.39 1722.32C2430.8 1698.98 2496.58 1547.8 2422.95 1435.48C2395.51 1393.72 2373.04 1344.73 2385.76 1308.61Z" fill="#E83F5B"/>
<path opacity="0.1" d="M2385.76 1309.69C2385.76 1309.69 2321.29 1374.06 2357.68 1469.56C2394.08 1565.07 2295.31 1723.88 2295.31 1723.88C2295.31 1723.88 2296.37 1723.72 2298.39 1723.38C2430.8 1700.05 2496.58 1548.87 2422.95 1436.55C2395.51 1394.79 2373.04 1345.81 2385.76 1309.69Z" fill="black"/>
<path d="M2385.76 1308.61C2385.76 1308.61 2349.36 1387.5 2385.76 1451.87C2422.15 1516.24 2391.92 1696.86 2295.29 1722.81" stroke="#535461" stroke-width="5.71204" stroke-miterlimit="10"/>
<path d="M2500.58 1568.94C2500.58 1568.94 2427.02 1557.25 2420.32 1623.06C2413.62 1688.88 2278.82 1698 2278.82 1698L2281.34 1699.68C2392.6 1772.6 2498.97 1746.12 2482.93 1649.29C2477.01 1613.31 2477.5 1577.16 2500.58 1568.94Z" fill="#E83F5B"/>
<path d="M2500.59 1568.94C2500.59 1568.94 2443.48 1581.45 2448.19 1633.29C2452.91 1685.14 2363.44 1747.28 2278.88 1698.02" stroke="#535461" stroke-width="5.71204" stroke-miterlimit="10"/>
<path d="M2435.87 1700.4C2435.87 1700.4 2377.93 1688.83 2362.47 1673.4C2347.02 1657.97 2277.49 1630.99 2269.77 1650.32C2262.05 1669.66 2165.48 1735.17 2231.14 1746.74C2296.8 1758.31 2385.65 1762.12 2404.96 1754.43C2424.26 1746.74 2435.87 1700.4 2435.87 1700.4Z" fill="#A8A8A8"/>
<path opacity="0.2" d="M2231.14 1739.52C2296.82 1751.09 2385.65 1754.91 2404.96 1747.21C2419.67 1741.34 2429.89 1713.12 2433.93 1699.98L2435.85 1700.38C2435.85 1700.38 2424.26 1746.66 2404.96 1754.37C2385.65 1762.08 2296.8 1758.23 2231.14 1746.68C2212.19 1743.34 2206.76 1735.49 2208.81 1725.57C2210.42 1732.05 2217.03 1737.03 2231.14 1739.52Z" fill="black"/>
</g>
<defs>
<linearGradient id="paint0_linear_2223_118" x1="1705.63" y1="1773.41" x2="1705.63" y2="659.599" gradientUnits="userSpaceOnUse">
<stop stop-color="#808080" stop-opacity="0.25"/>
<stop offset="0.54" stop-color="#808080" stop-opacity="0.12"/>
<stop offset="1" stop-color="#808080" stop-opacity="0.1"/>
</linearGradient>
<linearGradient id="paint1_linear_2223_118" x1="270565" y1="383323" x2="270565" y2="115800" gradientUnits="userSpaceOnUse">
<stop stop-color="#808080" stop-opacity="0.25"/>
<stop offset="0.54" stop-color="#808080" stop-opacity="0.12"/>
<stop offset="1" stop-color="#808080" stop-opacity="0.1"/>
</linearGradient>
<clipPath id="clip0_2223_118">
<rect width="1599.37" height="1188.1" fill="white" transform="translate(901.368 625.123)"/>
</clipPath>
</defs>
</svg>
