<svg width="90" height="81" viewBox="0 0 90 81" fill="none" xmlns="http://www.w3.org/2000/svg">
<path d="M44.0128 68.4176C24.3536 72.438 14.8021 86.7395 10.7818 67.0803C6.76141 47.4211 13.7809 11.5378 33.4401 7.5174C53.0993 3.49705 71.4836 19.9219 75.5039 39.5811C79.5243 59.2403 63.672 64.3973 44.0128 68.4176Z" fill="#5E52AD"/>
<path d="M71.4104 29.0369C71.4104 48.2528 63.9652 68.3122 44.6936 68.3122C25.4221 68.3122 6.14233 52.9629 6.14233 33.747C6.14233 14.531 22.5777 19.1104 41.8493 19.1104C61.1208 19.1104 71.4104 9.82096 71.4104 29.0369Z" fill="#2F317C"/>
<g clip-path="url(#clip0_1383_770)">
<path opacity="0.1" d="M17.0011 24.7801C16.6618 24.9213 16.3135 25.1026 16.1271 25.4203C15.9296 25.756 15.9532 26.1728 15.99 26.5612C16.3104 29.9295 17.1545 33.5118 15.6969 36.5629C14.9894 38.0431 13.806 39.2293 12.8647 40.5736C11.9235 41.9178 11.2128 43.5962 11.6498 45.1776C12.1835 47.11 14.1752 48.1813 15.5178 49.6683C16.3965 50.6406 17.0126 51.822 17.8326 52.8449C18.6525 53.8677 19.776 54.7688 21.0849 54.8289C22.9674 54.9158 24.4991 53.2849 26.3448 52.907C28.2357 52.5203 30.1397 53.5046 31.6729 54.6829C33.2062 55.8612 34.6007 57.2887 36.3871 58.0243C38.3599 58.8374 40.5838 58.7131 42.6607 59.2016C44.5516 59.6469 46.2923 60.5938 48.1695 61.0986C50.0468 61.6034 52.2471 61.5729 53.7015 60.2834C55.5971 58.5971 55.448 55.5935 56.6587 53.3629C57.7832 51.2903 59.9846 50.053 61.4663 48.2208C64.1325 44.9231 64.0453 39.8827 61.7814 36.2962C59.5176 32.7097 55.417 30.5381 51.2239 29.9727C49.333 29.7182 47.3859 29.753 45.568 29.1738C40.702 27.6246 37.8063 22.0736 32.8385 20.9185C29.6807 20.1855 26.6095 21.4549 23.9197 23.0174C21.585 24.3738 19.4309 23.7688 17.0011 24.7801Z" fill="#E83F5B"/>
<path opacity="0.1" d="M17.0011 24.7801C16.6618 24.9213 16.3135 25.1026 16.1271 25.4203C15.9296 25.756 15.9532 26.1728 15.99 26.5612C16.3104 29.9295 17.1545 33.5118 15.6969 36.5629C14.9894 38.0431 13.806 39.2293 12.8647 40.5736C11.9235 41.9178 11.2128 43.5962 11.6498 45.1776C12.1835 47.11 14.1752 48.1813 15.5178 49.6683C16.3965 50.6406 17.0126 51.822 17.8326 52.8449C18.6525 53.8677 19.776 54.7688 21.0849 54.8289C22.9674 54.9158 24.4991 53.2849 26.3448 52.907C28.2357 52.5203 30.1397 53.5046 31.6729 54.6829C33.2062 55.8612 34.6007 57.2887 36.3871 58.0243C38.3599 58.8374 40.5838 58.7131 42.6607 59.2016C44.5516 59.6469 46.2923 60.5938 48.1695 61.0986C50.0468 61.6034 52.2471 61.5729 53.7015 60.2834C55.5971 58.5971 55.448 55.5935 56.6587 53.3629C57.7832 51.2903 59.9846 50.053 61.4663 48.2208C64.1325 44.9231 64.0453 39.8827 61.7814 36.2962C59.5176 32.7097 55.417 30.5381 51.2239 29.9727C49.333 29.7182 47.3859 29.753 45.568 29.1738C40.702 27.6246 37.8063 22.0736 32.8385 20.9185C29.6807 20.1855 26.6095 21.4549 23.9197 23.0174C21.585 24.3738 19.4309 23.7688 17.0011 24.7801Z" fill="#E83F5B"/>
<path opacity="0.1" d="M17.0011 24.7801C16.6618 24.9213 16.3135 25.1026 16.1271 25.4203C15.9296 25.756 15.9532 26.1728 15.99 26.5612C16.3104 29.9295 17.1545 33.5118 15.6969 36.5629C14.9894 38.0431 13.806 39.2293 12.8647 40.5736C11.9235 41.9178 11.2128 43.5962 11.6498 45.1776C12.1835 47.11 14.1752 48.1813 15.5178 49.6683C16.3965 50.6406 17.0126 51.822 17.8326 52.8449C18.6525 53.8677 19.776 54.7688 21.0849 54.8289C22.9674 54.9158 24.4991 53.2849 26.3448 52.907C28.2357 52.5203 30.1397 53.5046 31.6729 54.6829C33.2062 55.8612 34.6007 57.2887 36.3871 58.0243C38.3599 58.8374 40.5838 58.7131 42.6607 59.2016C44.5516 59.6469 46.2923 60.5938 48.1695 61.0986C50.0468 61.6034 52.2471 61.5729 53.7015 60.2834C55.5971 58.5971 55.448 55.5935 56.6587 53.3629C57.7832 51.2903 59.9846 50.053 61.4663 48.2208C64.1325 44.9231 64.0453 39.8827 61.7814 36.2962C59.5176 32.7097 55.417 30.5381 51.2239 29.9727C49.333 29.7182 47.3859 29.753 45.568 29.1738C40.702 27.6246 37.8063 22.0736 32.8385 20.9185C29.6807 20.1855 26.6095 21.4549 23.9197 23.0174C21.585 24.3738 19.4309 23.7688 17.0011 24.7801Z" fill="#E83F5B"/>
<path opacity="0.1" d="M17.0011 24.7801C16.6618 24.9213 16.3135 25.1026 16.1271 25.4203C15.9296 25.756 15.9532 26.1728 15.99 26.5612C16.3104 29.9295 17.1545 33.5118 15.6969 36.5629C14.9894 38.0431 13.806 39.2293 12.8647 40.5736C11.9235 41.9178 11.2128 43.5962 11.6498 45.1776C12.1835 47.11 14.1752 48.1813 15.5178 49.6683C16.3965 50.6406 17.0126 51.822 17.8326 52.8449C18.6525 53.8677 19.776 54.7688 21.0849 54.8289C22.9674 54.9158 24.4991 53.2849 26.3448 52.907C28.2357 52.5203 30.1397 53.5046 31.6729 54.6829C33.2062 55.8612 34.6007 57.2887 36.3871 58.0243C38.3599 58.8374 40.5838 58.7131 42.6607 59.2016C44.5516 59.6469 46.2923 60.5938 48.1695 61.0986C50.0468 61.6034 52.2471 61.5729 53.7015 60.2834C55.5971 58.5971 55.448 55.5935 56.6587 53.3629C57.7832 51.2903 59.9846 50.053 61.4663 48.2208C64.1325 44.9231 64.0453 39.8827 61.7814 36.2962C59.5176 32.7097 55.417 30.5381 51.2239 29.9727C49.333 29.7182 47.3859 29.753 45.568 29.1738C40.702 27.6246 37.8063 22.0736 32.8385 20.9185C29.6807 20.1855 26.6095 21.4549 23.9197 23.0174C21.585 24.3738 19.4309 23.7688 17.0011 24.7801Z" fill="#E83F5B"/>
<path d="M21.7432 35.6617C21.7432 35.6617 19.9505 37.359 18.0265 37.4096C17.2185 37.4257 16.4376 37.7044 15.801 38.2037C15.5001 38.4424 15.2216 38.7082 14.969 38.9979" stroke="#535461" stroke-width="1.69039" stroke-miterlimit="10"/>
<path d="M13.755 39.0395C14.0135 38.9078 14.9999 38.9953 14.9999 38.9953C14.9999 38.9953 14.4883 39.8463 14.2299 39.978C14.168 40.0148 14.0992 40.0385 14.0278 40.0475C13.9564 40.0566 13.884 40.0508 13.8149 40.0306C13.7458 40.0104 13.6816 39.9762 13.6263 39.93C13.571 39.8839 13.5257 39.8268 13.4932 39.7624C13.4608 39.698 13.4419 39.6276 13.4377 39.5555C13.4335 39.4834 13.4441 39.4113 13.4688 39.3435C13.4936 39.2757 13.5319 39.2138 13.5815 39.1615C13.6311 39.1092 13.6909 39.0677 13.7571 39.0395H13.755Z" fill="#E83F5B"/>
<path d="M14.7934 37.5351C15.0817 37.5657 15.8623 38.177 15.8623 38.177C15.8623 38.177 14.9693 38.6122 14.6836 38.5822C14.5499 38.5619 14.4292 38.4907 14.3465 38.3834C14.2638 38.2761 14.2256 38.1409 14.2397 38.006C14.2538 37.8711 14.3193 37.7469 14.4224 37.6592C14.5255 37.5715 14.6584 37.527 14.7934 37.5351Z" fill="#E83F5B"/>
<path d="M17.257 36.3225C17.4902 36.4948 17.8568 37.418 17.8568 37.418C17.8568 37.418 16.8688 37.3427 16.6356 37.1709C16.5305 37.0857 16.4621 36.9631 16.4448 36.8286C16.4274 36.6942 16.4624 36.5582 16.5424 36.4489C16.6224 36.3397 16.7413 36.2656 16.8744 36.242C17.0075 36.2185 17.1445 36.2473 17.257 36.3225Z" fill="#E83F5B"/>
<path d="M19.3254 35.8267C19.5844 35.9568 20.1012 36.8047 20.1012 36.8047C20.1012 36.8047 19.1148 36.898 18.8558 36.7678C18.7905 36.7392 18.7317 36.6975 18.6829 36.6454C18.6341 36.5932 18.5964 36.5316 18.5722 36.4643C18.5479 36.3971 18.5375 36.3256 18.5417 36.2542C18.5458 36.1828 18.5644 36.113 18.5963 36.049C18.6282 35.9851 18.6728 35.9283 18.7273 35.8822C18.7818 35.836 18.845 35.8015 18.9133 35.7807C18.9815 35.7599 19.0532 35.7533 19.124 35.7612C19.1949 35.7691 19.2634 35.7913 19.3254 35.8267Z" fill="#E83F5B"/>
<path d="M16.4114 39.1365C16.4976 38.8588 16.2455 37.8976 16.2455 37.8976C16.2455 37.8976 15.4954 38.5468 15.4093 38.8245C15.385 38.8915 15.3745 38.9628 15.3785 39.034C15.3825 39.1052 15.4008 39.1749 15.4325 39.2387C15.4641 39.3026 15.5083 39.3594 15.5624 39.4056C15.6165 39.4519 15.6794 39.4866 15.7473 39.5077C15.8152 39.5289 15.8866 39.536 15.9573 39.5286C16.028 39.5212 16.0965 39.4995 16.1586 39.4648C16.2207 39.4301 16.2751 39.3831 16.3186 39.3266C16.362 39.2702 16.3936 39.2055 16.4114 39.1365Z" fill="#E83F5B"/>
<path d="M18.8226 38.5236C18.8226 38.2327 18.2948 37.3917 18.2948 37.3917C18.2948 37.3917 17.7727 38.2349 17.7732 38.5268C17.7736 38.6665 17.8294 38.8004 17.9281 38.8989C18.0269 38.9975 18.1607 39.0526 18.3 39.0522C18.4393 39.0517 18.5728 38.9958 18.671 38.8967C18.7692 38.7976 18.8241 38.6634 18.8237 38.5236H18.8226Z" fill="#E83F5B"/>
<path d="M21.0871 37.6088C21.1354 37.3222 20.7572 36.4037 20.7572 36.4037C20.7572 36.4037 20.1002 37.1478 20.0524 37.4344C20.0362 37.5689 20.0723 37.7045 20.1532 37.813C20.234 37.9215 20.3534 37.9945 20.4865 38.0171C20.6197 38.0396 20.7564 38.0098 20.8682 37.9339C20.98 37.8579 21.0584 37.7417 21.0871 37.6094V37.6088Z" fill="#E83F5B"/>
<path d="M24.0719 31.1667C24.0719 31.1667 21.9126 29.9768 21.2707 28.154C21.007 27.3876 20.5026 26.7276 19.8331 26.2733C19.5136 26.06 19.1754 25.8766 18.8225 25.7253" stroke="#535461" stroke-width="1.69039" stroke-miterlimit="10"/>
<path d="M18.4124 24.5793C18.6167 24.7853 18.8368 25.7544 18.8368 25.7544C18.8368 25.7544 17.8725 25.5278 17.6681 25.3212C17.5779 25.2207 17.5297 25.0892 17.5334 24.954C17.5371 24.8188 17.5926 24.6902 17.6882 24.5948C17.7839 24.4995 17.9124 24.4447 18.0472 24.4418C18.182 24.4389 18.3128 24.4881 18.4124 24.5793Z" fill="#E83F5B"/>
<path d="M20.16 25.1077C20.2199 25.3922 19.8801 26.3255 19.8801 26.3255C19.8801 26.3255 19.1936 25.6093 19.1337 25.3242C19.1159 25.2553 19.1122 25.1835 19.1229 25.1131C19.1336 25.0427 19.1584 24.9751 19.1958 24.9146C19.2332 24.8541 19.2824 24.8018 19.3405 24.7609C19.3987 24.72 19.4644 24.6914 19.5339 24.6767C19.6033 24.662 19.675 24.6616 19.7447 24.6755C19.8143 24.6894 19.8804 24.7173 19.9389 24.7575C19.9975 24.7977 20.0473 24.8495 20.0854 24.9096C20.1235 24.9696 20.1491 25.0369 20.1605 25.1071L20.16 25.1077Z" fill="#E83F5B"/>
<path d="M22.0665 27.0886C21.9751 27.3642 21.2119 27.9981 21.2119 27.9981C21.2119 27.9981 20.9797 27.0322 21.0711 26.7561C21.1151 26.6233 21.2098 26.5135 21.3344 26.4508C21.4591 26.3881 21.6035 26.3776 21.7358 26.4217C21.8682 26.4658 21.9776 26.5608 22.0401 26.6859C22.1026 26.811 22.113 26.9558 22.0691 27.0886H22.0665Z" fill="#E83F5B"/>
<path d="M23.1733 28.9092C23.1297 29.1964 22.4842 29.9505 22.4842 29.9505C22.4842 29.9505 22.0924 29.0378 22.136 28.7506C22.1432 28.6796 22.1648 28.6109 22.1993 28.5485C22.2339 28.4861 22.2807 28.4314 22.3369 28.3878C22.3931 28.3441 22.4576 28.3123 22.5264 28.2944C22.5953 28.2764 22.667 28.2727 22.7373 28.2834C22.8077 28.2942 22.8751 28.3191 22.9355 28.3567C22.9959 28.3943 23.0481 28.4439 23.0889 28.5024C23.1296 28.5608 23.1581 28.627 23.1726 28.6968C23.1872 28.7667 23.1874 28.8388 23.1733 28.9087V28.9092Z" fill="#E83F5B"/>
<path d="M19.1373 27.145C19.4272 27.1419 20.2613 26.6054 20.2613 26.6054C20.2613 26.6054 19.4151 26.089 19.1252 26.0922C18.9859 26.0938 18.8529 26.1508 18.7556 26.2508C18.6582 26.3508 18.6044 26.4854 18.606 26.6252C18.6076 26.765 18.6645 26.8984 18.7641 26.996C18.8637 27.0937 18.998 27.1477 19.1373 27.1461V27.145Z" fill="#E83F5B"/>
<path d="M20.458 29.2602C20.7332 29.17 21.3693 28.4081 21.3693 28.4081C21.3693 28.4081 20.4076 28.1694 20.1323 28.2595C20.0644 28.2789 20.0011 28.3119 19.9462 28.3565C19.8913 28.401 19.8459 28.4562 19.8127 28.5188C19.7795 28.5814 19.7593 28.65 19.7532 28.7206C19.7471 28.7912 19.7552 28.8623 19.7771 28.9297C19.799 28.997 19.8343 29.0593 19.8807 29.1127C19.9272 29.166 19.9838 29.2095 20.0474 29.2404C20.111 29.2713 20.1801 29.289 20.2506 29.2925C20.3212 29.296 20.3917 29.2852 20.458 29.2607V29.2602Z" fill="#E83F5B"/>
<path d="M22.0236 31.1394C22.3104 31.0972 23.0657 30.4543 23.0657 30.4543C23.0657 30.4543 22.1581 30.0559 21.8718 30.0981C21.8013 30.1054 21.733 30.1269 21.671 30.1614C21.609 30.1959 21.5546 30.2426 21.5111 30.2987C21.4676 30.3548 21.4358 30.4192 21.4177 30.4879C21.3997 30.5567 21.3957 30.6284 21.406 30.6988C21.4162 30.7691 21.4406 30.8366 21.4776 30.8973C21.5146 30.958 21.5634 31.0105 21.6212 31.0517C21.6789 31.0929 21.7444 31.122 21.8137 31.1371C21.8829 31.1523 21.9545 31.1532 22.0241 31.1399L22.0236 31.1394Z" fill="#E83F5B"/>
<path d="M38.9311 60.0377C49.4323 60.0377 57.9452 51.4971 57.9452 40.9618C57.9452 30.4264 49.4323 21.8859 38.9311 21.8859C28.4299 21.8859 19.917 30.4264 19.917 40.9618C19.917 51.4971 28.4299 60.0377 38.9311 60.0377Z" fill="url(#paint0_linear_1383_770)"/>
<path d="M38.9324 59.7215C49.2595 59.7215 57.6313 51.3225 57.6313 40.9618C57.6313 30.6011 49.2595 22.202 38.9324 22.202C28.6052 22.202 20.2334 30.6011 20.2334 40.9618C20.2334 51.3225 28.6052 59.7215 38.9324 59.7215Z" fill="#E83F5B"/>
<path d="M38.9325 55.8748C47.142 55.8748 53.7971 49.198 53.7971 40.9618C53.7971 32.7256 47.142 26.0489 38.9325 26.0489C30.723 26.0489 24.0679 32.7256 24.0679 40.9618C24.0679 49.198 30.723 55.8748 38.9325 55.8748Z" fill="#DDE1EC"/>
<path opacity="0.3" d="M39.3511 28.6837H38.5107V41.8577H39.3511V28.6837Z" fill="#535461"/>
<g opacity="0.1">
<path opacity="0.1" d="M51.6978 40.6457H39.8271V41.6996H51.6978V40.6457Z" fill="black"/>
<path opacity="0.1" d="M31.4454 36.7026L30.958 37.6363L38.4272 41.5604L38.9145 40.6268L31.4454 36.7026Z" fill="black"/>
<path opacity="0.1" d="M38.9346 42.7534C39.8049 42.7534 40.5104 42.0456 40.5104 41.1726C40.5104 40.2995 39.8049 39.5917 38.9346 39.5917C38.0644 39.5917 37.3589 40.2995 37.3589 41.1726C37.3589 42.0456 38.0644 42.7534 38.9346 42.7534Z" fill="black"/>
</g>
<path d="M51.6954 40.4349H39.8247V41.4888H51.6954V40.4349Z" fill="#535461"/>
<path d="M38.9164 40.4172L31.4473 36.493L30.9599 37.4267L38.4291 41.3508L38.9164 40.4172Z" fill="#535461"/>
<path d="M38.9312 42.5427C39.8015 42.5427 40.507 41.8349 40.507 40.9618C40.507 40.0887 39.8015 39.3809 38.9312 39.3809C38.061 39.3809 37.3555 40.0887 37.3555 40.9618C37.3555 41.8349 38.061 42.5427 38.9312 42.5427Z" fill="#535461"/>
<g opacity="0.1">
<path opacity="0.1" d="M25.222 42.7535C25.222 34.5171 31.8769 27.8406 40.0866 27.8406C42.3909 27.8385 44.6639 28.3748 46.7258 29.4068C48.7877 30.4389 50.5817 31.9385 51.9657 33.7868C49.4361 29.1748 44.5513 26.0489 38.9311 26.0489C30.7214 26.0489 24.0664 32.7255 24.0664 40.9618C24.0616 44.1975 25.1105 47.3461 27.0535 49.9286C25.8486 47.7306 25.2184 45.262 25.222 42.7535Z" fill="black"/>
</g>
<path d="M52.6663 29.9915C52.4898 29.8213 51.0044 30.9401 51.0044 30.9401C51.0044 30.9401 50.4755 31.037 50.6016 31.4012C50.7276 31.7653 50.0474 33.8046 50.0474 33.8046L49.7706 33.4163C49.7974 32.9604 49.6724 32.6374 49.5505 32.4361C49.5405 32.4198 49.5306 32.404 49.5206 32.3892L49.5689 32.3723C49.5505 32.1236 49.154 31.7447 48.9433 31.5593C48.9433 31.5324 48.9433 31.5066 48.9433 31.4792C48.9565 31.1819 49.0752 30.8684 48.9433 30.5991C48.7942 30.2919 48.3577 30.1375 48.3209 29.8003C48.2988 29.599 48.4344 29.4172 48.4942 29.2232C48.6371 28.7595 48.3403 28.2863 48.0567 27.8869C47.9606 27.7371 47.8437 27.6019 47.7095 27.4853C47.5817 27.3916 47.4413 27.3163 47.2925 27.2619C46.877 27.0933 46.4521 27.0084 46.0235 26.893C45.6122 26.7834 45.233 26.7313 44.8154 26.8688C44.7163 26.8956 44.6258 26.9477 44.5527 27.02C44.4535 27.1317 44.4403 27.2909 44.3752 27.4242C44.2702 27.6387 44.0438 27.7667 43.8437 27.9043C43.6435 28.0418 43.4429 28.2305 43.4418 28.4676C43.4418 28.8043 43.8253 29.0161 43.9534 29.3297C44.0732 29.6216 43.9534 29.9468 43.8867 30.2545C43.8589 30.354 43.8561 30.4588 43.8788 30.5596C43.9053 30.6347 43.9452 30.7044 43.9965 30.7651C44.0758 30.8705 44.1609 30.9685 44.2455 31.0687L44.2066 31.0839C43.5017 31.0112 43.0484 31.9092 43.0484 31.9092C43.081 31.916 43.112 31.9239 43.1424 31.9329L43.1125 31.9719C42.8995 32.2494 42.7254 32.5549 42.5951 32.8798L42.0174 33.6565C42.0174 33.6565 41.8913 31.7142 42.1938 31.2773C42.4964 30.8405 41.917 30.5733 41.917 30.5733C41.917 30.5733 40.6564 29.1653 40.4815 29.2865C40.3066 29.4077 40.9096 30.9374 41.4385 31.1804C41.4385 31.1804 41.4911 31.6657 41.386 31.9813C41.3224 32.1811 40.9831 34.2878 40.9831 34.2878C40.9831 34.2878 40.6811 36.06 42.0662 35.1837C42.966 34.6156 43.5474 33.6376 43.8437 33.0231C43.8643 32.9799 43.8838 32.9387 43.902 32.8993C43.9157 32.9645 43.925 33.0305 43.9298 33.0969L43.9823 35.1273C43.9956 35.6295 43.8864 36.1273 43.664 36.5775L43.0468 37.8332L43.1157 37.8543L43.0742 37.9144C42.6676 38.5146 41.9764 39.8641 43.3993 40.5518L45.2902 40.7947L45.1894 41.2801C45.1894 41.2801 44.4088 42.7608 44.1819 43.7805C44.041 44.4049 43.8209 45.0086 43.5269 45.5769L43.5852 45.608C43.5732 45.6217 43.5605 45.6359 43.5485 45.6507C43.4338 45.78 43.358 45.9394 43.33 46.1102L43.0736 46.4748C43.0736 46.4748 42.9728 47.9798 43.1745 48.3445C43.2848 48.5437 43.6509 48.6701 43.9624 48.7439C44.4246 48.8541 44.7975 48.375 44.5522 47.9804L44.5491 47.9751H44.5443C44.4918 47.73 44.3311 46.9696 44.3836 46.6809C44.3983 46.5987 44.412 46.517 44.4188 46.4337C44.4314 46.3243 44.4646 46.2183 44.5165 46.1212C44.5249 46.1049 44.5338 46.0891 44.5428 46.0733L44.5701 46.0849C44.6546 46.1212 44.7382 46.1555 44.8175 46.1855C44.6946 46.2978 44.6074 46.5302 44.7124 47.0081C44.7124 47.0081 44.7224 48.2038 44.8133 48.3919C44.9041 48.58 45.921 48.8288 46.0975 48.6348C46.274 48.4409 45.9841 47.7727 45.9841 47.7727L45.9751 47.7791C45.9168 47.3917 45.8449 46.6983 46.0219 46.4253C46.0933 46.3152 46.1626 46.2013 46.2246 46.0949L46.263 46.029C46.5918 46.1934 46.9395 46.3173 47.1296 46.2314C47.1296 46.2314 47.9606 44.289 47.9102 44.0466C47.8597 43.8042 49.1944 41.0603 49.1944 41.0603C49.1944 41.0603 50.3274 39.7956 48.9428 38.924C48.5032 38.6463 48.1828 38.4598 47.9501 38.3338L47.7552 37.3115C47.655 36.7756 47.6729 36.2241 47.8077 35.6959L48.0178 34.8917L48.0352 34.8232C48.0352 34.8232 48.5641 33.7308 48.5389 33.2208C48.5369 33.1811 48.5414 33.1414 48.552 33.1032C48.5578 33.1275 48.5641 33.1528 48.5709 33.1791C48.7099 33.7093 48.893 34.2268 49.1182 34.7263C49.5201 35.6358 50.1162 35.5636 50.4429 35.4345C50.5129 35.4074 50.575 35.3632 50.6236 35.306C50.6723 35.2488 50.7061 35.1803 50.7218 35.1067C50.8395 34.5408 51.1625 32.9552 51.183 32.5173C51.2013 32.1748 51.2434 31.8341 51.3091 31.4976C52.1379 31.0112 52.8428 30.1618 52.6663 29.9915Z" fill="url(#paint1_linear_1383_770)"/>
<path d="M46.5005 45.5485C46.5005 45.5485 46.3897 45.7714 46.2379 46.0391C46.1785 46.1445 46.1123 46.2578 46.0446 46.3669C45.8045 46.7521 46.0446 47.9794 46.0446 47.9794L45.5193 48.0516L44.9941 47.7881L44.8979 46.8975V46.2462L45.4967 45.5743L45.7594 45.2834L46.5005 45.5485Z" fill="#F8BDC5"/>
<g opacity="0.1">
<path opacity="0.1" d="M46.4999 45.5485C46.4999 45.5485 46.3891 45.7714 46.2373 46.0391C46.0054 45.9148 45.7812 45.7765 45.566 45.6249L45.5198 45.5922L45.4951 45.5743L45.7577 45.2834L46.4999 45.5485Z" fill="black"/>
</g>
<path d="M49.0687 41.0472C49.0687 41.0472 47.7971 43.7668 47.8454 44.0076C47.8937 44.2485 47.1016 46.174 47.1016 46.174C46.921 46.2593 46.589 46.1366 46.2759 45.9737C46.0399 45.8475 45.8118 45.7067 45.5931 45.5522L45.5469 45.5195L45.5191 45.4995L47.6064 39.6987L45.7596 38.3397L45.6231 38.239L44.7974 37.6277L47.3186 38.0851C47.3186 38.0851 47.4063 38.0741 47.8701 38.3344C48.0928 38.4593 48.4022 38.6464 48.8297 38.9278C50.1476 39.7957 49.0687 41.0472 49.0687 41.0472Z" fill="#5E52AD"/>
<g opacity="0.03">
<path opacity="0.03" d="M49.0682 41.0472C49.0682 41.0472 47.7966 43.7668 47.8449 44.0076C47.8932 44.2485 47.1012 46.174 47.1012 46.174C46.9205 46.2593 46.5885 46.1366 46.2755 45.9737C46.0394 45.8475 45.8113 45.7067 45.5926 45.5522L45.5464 45.5195L45.5186 45.4995L47.6059 39.6987L45.7591 38.3397L45.6226 38.239L44.7969 37.6277L47.3181 38.0851C47.3181 38.0851 47.4058 38.0741 47.8696 38.3344C48.0923 38.4593 48.4017 38.6464 48.8292 38.9278C50.1471 39.7957 49.0682 41.0472 49.0682 41.0472Z" fill="black"/>
</g>
<path d="M45.2042 46.0297C45.2042 46.0297 44.5802 45.9333 44.7966 46.9445C44.7966 46.9445 44.806 48.1302 44.8927 48.3146C44.9794 48.499 45.9485 48.7477 46.116 48.5554C46.2836 48.3631 46.0078 47.7012 46.0078 47.7012C46.0078 47.7012 45.3003 48.2187 45.1081 47.6648C44.9158 47.111 45.2042 46.0297 45.2042 46.0297Z" fill="#5D3E53"/>
<path d="M44.7732 45.8372C44.7051 45.9023 44.6497 45.9795 44.6098 46.0649C44.5603 46.1616 44.5287 46.2666 44.5169 46.3747C44.5106 46.4569 44.4974 46.5386 44.4838 46.6197C44.4239 46.9628 44.6534 47.9793 44.6534 47.9793L43.7416 48.1237L43.4059 47.7627L43.334 46.9686C43.4236 46.6963 43.4721 46.4121 43.4779 46.1255C43.4779 45.9184 43.583 45.7334 43.688 45.5985C43.7592 45.5085 43.8409 45.4273 43.9312 45.3566C43.9312 45.3566 44.9654 45.6686 44.7732 45.8372Z" fill="#F8BDC5"/>
<g opacity="0.1">
<path opacity="0.1" d="M44.773 45.8373C44.7049 45.9023 44.6495 45.9795 44.6097 46.0649C44.2362 45.8958 43.8438 45.6824 43.701 45.6033L43.6899 45.5975C43.7612 45.5075 43.8428 45.4263 43.9331 45.3557C43.9331 45.3557 44.9653 45.6687 44.773 45.8373Z" fill="black"/>
</g>
<path d="M47.7238 40.3253C47.7238 40.3253 47.1245 41.4566 46.7401 42.3951C46.4879 43.0117 45.9669 44.4798 45.637 45.4146L45.5887 45.5527C45.4437 45.9664 45.3471 46.2462 45.3471 46.2462C45.2832 46.2466 45.2196 46.2372 45.1585 46.2182C45.1018 46.203 45.0382 46.1824 44.9705 46.1571L44.8943 46.1281C44.8187 46.0986 44.7367 46.0644 44.6585 46.0285C44.2771 45.8578 43.8706 45.6354 43.723 45.5543L43.6673 45.5232C43.9488 44.9573 44.159 44.3585 44.2929 43.7405C44.5088 42.7298 45.2525 41.2638 45.2525 41.2638L45.3487 40.7821L43.5491 40.5413C42.1935 39.8615 42.8521 38.5215 43.2393 37.9265C43.3053 37.8233 43.3766 37.7235 43.453 37.6277L44.8927 37.9439C44.8927 37.9439 45.1197 38.0166 45.6239 38.2406L45.8555 38.346C46.1381 38.4762 46.4858 38.6437 46.906 38.8587C48.3232 39.5775 47.7238 40.3253 47.7238 40.3253Z" fill="#5E52AD"/>
<path d="M44.6439 47.907C44.6952 47.9938 44.7198 48.0939 44.7145 48.1947C44.7093 48.2955 44.6744 48.3924 44.6143 48.4734C44.5542 48.5543 44.4716 48.6155 44.3768 48.6494C44.2821 48.6833 44.1794 48.6883 44.0819 48.6638C43.7872 48.5905 43.4379 48.4651 43.3328 48.2675C43.1411 47.9065 43.2367 46.4142 43.2367 46.4142L43.4888 46.0411C43.4888 46.0411 43.357 47.6899 43.669 47.8327C43.981 47.9755 44.6407 47.8997 44.6407 47.8997L44.6439 47.907Z" fill="#5D3E53"/>
<path d="M44.8999 26.9758C44.804 27.0025 44.717 27.0543 44.6477 27.1259C44.5532 27.2366 44.5427 27.3947 44.4786 27.527C44.3788 27.7377 44.1635 27.8669 43.9723 28.0012C43.7811 28.1356 43.5904 28.3248 43.5894 28.5598C43.5894 28.8939 43.957 29.1036 44.0768 29.414C44.1908 29.7038 44.0768 30.0258 44.0132 30.3309C43.9867 30.4297 43.9842 30.5334 44.0059 30.6334C44.0309 30.7075 44.069 30.7766 44.1183 30.8373C44.3499 31.1535 44.6378 31.4338 44.7927 31.7938C44.9104 32.0672 44.9429 32.3692 44.9739 32.6659C45.0186 33.0927 45.0632 33.5274 44.9823 33.949C44.9745 33.9742 44.9745 34.0013 44.9823 34.0265C44.9961 34.0507 45.0178 34.0693 45.0438 34.0792C45.1966 34.1537 45.3629 34.1964 45.5326 34.2048C45.7024 34.2132 45.872 34.1871 46.0314 34.128C46.1908 34.0689 46.3367 33.9781 46.4602 33.8611C46.5838 33.744 46.6824 33.6031 46.7503 33.4468C46.8554 33.2081 46.8958 32.9199 47.1038 32.7649C47.1281 32.7448 47.1573 32.7315 47.1884 32.7265C47.2374 32.7278 47.285 32.7438 47.3249 32.7723C47.5949 32.9188 47.9222 32.923 48.2231 32.863C48.4049 32.8266 48.5908 32.7618 48.7111 32.6195C48.948 32.337 48.8161 31.915 48.8319 31.5466C48.8445 31.252 48.9574 30.9411 48.8319 30.6745C48.6901 30.3699 48.2736 30.2171 48.2389 29.8841C48.2179 29.6849 48.3471 29.5041 48.4043 29.3123C48.5404 28.8523 48.2578 28.3833 47.9878 27.9875C47.897 27.8399 47.7858 27.7059 47.6574 27.5897C47.5363 27.4972 47.4026 27.4226 47.2603 27.3683C46.8648 27.2013 46.4614 27.117 46.0523 27.0032C45.6604 26.8909 45.2996 26.8388 44.8999 26.9758Z" fill="#85555C"/>
<path d="M46.9087 33.8506H45.5168V31.5878C45.5581 31.3705 45.5824 31.1502 45.5893 30.9291C45.5893 30.8548 45.5893 30.7789 45.5893 30.7025C45.5761 30.4327 45.5204 30.1634 45.3744 29.999C44.9905 29.5659 46.6219 29.6381 46.6219 29.6381C46.672 29.837 46.7369 30.0318 46.8162 30.2209C46.9344 30.5159 47.0917 30.7937 47.2837 31.0466C47.4527 31.2717 47.6692 31.4565 47.9177 31.5878C48.8758 32.0694 46.9087 33.8506 46.9087 33.8506Z" fill="#F8BDC5"/>
<g opacity="0.1">
<path opacity="0.1" d="M46.8153 30.2209C46.674 30.4058 46.4849 30.5484 46.2687 30.6333C46.0524 30.7182 45.8171 30.7421 45.5883 30.7026C45.5751 30.4328 45.5195 30.1635 45.3735 29.9991C44.9895 29.5659 46.6209 29.6381 46.6209 29.6381C46.671 29.837 46.736 30.0318 46.8153 30.2209Z" fill="black"/>
</g>
<path d="M45.8044 30.6498C46.5067 30.6498 47.076 30.0786 47.076 29.374C47.076 28.6694 46.5067 28.0983 45.8044 28.0983C45.102 28.0983 44.5327 28.6694 44.5327 29.374C44.5327 30.0786 45.102 30.6498 45.8044 30.6498Z" fill="#F8BDC5"/>
<path d="M51.0815 31.5641C51.0191 31.8979 50.9791 32.2355 50.9618 32.5748C50.9423 33.0084 50.6345 34.5809 50.5221 35.1421C50.508 35.2141 50.4763 35.2814 50.4299 35.3381C50.3836 35.3949 50.3239 35.4392 50.2564 35.4672C49.9444 35.5953 49.3771 35.667 48.9958 34.7653C48.7808 34.2692 48.6063 33.7564 48.4742 33.2319C48.4274 33.0556 48.3924 32.8764 48.3691 32.6954L49.2095 32.238C49.2886 32.3123 49.3556 32.3985 49.4081 32.4936C49.5242 32.6933 49.6434 33.0137 49.6182 33.4653L49.8808 33.8505C49.8808 33.8505 50.5284 31.8286 50.4061 31.4676C50.2837 31.1067 50.79 31.0102 50.79 31.0102C50.79 31.0102 52.2056 29.9036 52.3737 30.0717C52.5417 30.2398 51.8731 31.0824 51.0815 31.5641Z" fill="#F8BDC5"/>
<path d="M44.1969 32.5268C44.1313 32.7151 44.0559 32.8998 43.971 33.0801C43.6884 33.6898 43.1348 34.661 42.2776 35.2228C40.9582 36.0891 41.246 34.3322 41.246 34.3322C41.246 34.3322 41.5691 32.2433 41.63 32.0457C41.7261 31.7327 41.6778 31.2516 41.6778 31.2516C41.1741 31.0108 40.5984 29.4947 40.766 29.374C40.9335 29.2534 42.1316 30.6498 42.1316 30.6498C42.1316 30.6498 42.6836 30.9133 42.3942 31.348C42.1048 31.7828 42.2261 33.7067 42.2261 33.7067L42.7813 32.9379C42.9048 32.617 43.0707 32.3143 43.2745 32.0378C43.3796 31.894 43.4531 31.807 43.4531 31.807L44.1969 32.5268Z" fill="#F8BDC5"/>
<g opacity="0.1">
<path opacity="0.1" d="M49.4116 32.4936C49.2351 32.5589 48.5518 32.8356 48.4761 33.2313C48.4294 33.055 48.3943 32.8758 48.3711 32.6949L49.2115 32.2375C49.2912 32.3118 49.3587 32.3982 49.4116 32.4936Z" fill="black"/>
</g>
<g opacity="0.1">
<path opacity="0.1" d="M44.1977 32.5268C44.1322 32.7151 44.0568 32.8998 43.9719 33.0801C43.9393 32.8419 43.8054 32.2328 43.2754 32.0362C43.3804 31.8924 43.454 31.8054 43.454 31.8054L44.1977 32.5268Z" fill="black"/>
</g>
<g opacity="0.1">
<path opacity="0.1" d="M46.908 33.8505H45.5161V31.5878C45.5575 31.3705 45.5817 31.1502 45.5886 30.9291C45.8749 31.2063 45.804 31.6357 45.804 31.6357L46.5477 33.322L46.908 31.8312L46.7883 31.6389L47.282 31.0498C47.451 31.2748 47.6675 31.4596 47.916 31.5909C48.8751 32.0694 46.908 33.8505 46.908 33.8505Z" fill="black"/>
</g>
<g opacity="0.1">
<path opacity="0.1" d="M47.8934 38.4709C47.8934 38.4709 46.803 38.3839 45.857 38.3428L45.7619 38.3386C45.6275 38.3333 45.4993 38.3291 45.3738 38.326C44.4556 38.3038 43.4172 37.9819 43.2407 37.9255C43.3069 37.8226 43.3785 37.7232 43.455 37.6277L44.8947 37.9439C44.8947 37.9439 45.1216 38.0166 45.6259 38.2406L44.7986 37.6277L47.3198 38.0851C47.3198 38.0851 47.4075 38.0741 47.8713 38.3344L47.8934 38.4709Z" fill="black"/>
</g>
<path d="M46.908 31.9249L46.7883 31.7326L47.3209 31.0934C47.3209 31.0934 48.4192 31.6335 48.707 31.515C48.707 31.515 49.403 32.0946 49.4266 32.4298C49.4266 32.4298 48.4192 32.7665 48.4428 33.2729C48.4665 33.7793 47.9648 34.8612 47.9648 34.8612L47.7547 35.7264C47.6255 36.2508 47.6076 36.7966 47.7022 37.3284L47.8939 38.3997C47.8939 38.3997 46.3823 38.2795 45.3727 38.2553C44.3632 38.2311 43.2134 37.8464 43.2134 37.8464L43.8022 36.6033C44.0145 36.1547 44.1186 35.6622 44.1058 35.1657L44.0533 33.1533C44.0533 33.1533 44.0055 32.1426 43.2129 31.974C43.2129 31.974 43.6446 31.0834 44.3159 31.1556C44.3159 31.1556 45.2939 30.7461 45.5844 31.0228C45.8749 31.2994 45.8034 31.7331 45.8034 31.7331L46.5472 33.4194L46.908 31.9249Z" fill="#ED677B"/>
<g opacity="0.1">
<path opacity="0.1" d="M44.8853 29.111C45.078 29.111 45.2293 28.906 45.4221 28.9166C45.5219 28.9219 45.6075 28.9856 45.69 29.0431C46.0016 29.2595 46.3483 29.42 46.7147 29.5173C46.8571 29.5553 47.0078 29.5837 47.1507 29.5489C47.2935 29.5142 47.4275 29.4014 47.4438 29.2544C47.4478 29.1896 47.4392 29.1246 47.4186 29.0631C47.2568 28.4978 46.8909 28.0132 46.3922 27.704C46.1926 27.5813 45.9489 27.4875 45.7278 27.5644C45.5282 27.6334 45.3995 27.821 45.255 27.9754C45.1462 28.091 45.0225 28.1917 44.8874 28.2747C44.7823 28.3385 44.6247 28.3801 44.5643 28.4971C44.4504 28.7153 44.6295 29.1089 44.8853 29.111Z" fill="black"/>
</g>
<path d="M44.8862 29.0631C45.079 29.0631 45.2303 28.8581 45.423 28.8687C45.5228 28.8739 45.6085 28.9377 45.6909 28.9951C46.0025 29.2116 46.3493 29.3721 46.7157 29.4694C46.858 29.5073 47.0088 29.5358 47.1517 29.501C47.2945 29.4662 47.4285 29.3535 47.4447 29.2065C47.4487 29.1417 47.4402 29.0767 47.4195 29.0152C47.2578 28.4499 46.8919 27.9653 46.3932 27.6561C46.1936 27.5334 45.9499 27.4396 45.7287 27.5165C45.5291 27.5855 45.4005 27.7731 45.256 27.9275C45.1472 28.0431 45.0235 28.1438 44.8883 28.2268C44.7833 28.2906 44.6257 28.3322 44.5653 28.4492C44.4513 28.6695 44.6304 29.0605 44.8862 29.0631Z" fill="#85555C"/>
<path opacity="0.05" d="M44.3052 34.5604C44.3052 34.5604 45.4807 34.9935 46.2486 34.6568L46.6326 34.681C46.6326 34.681 47.2707 35.13 47.9457 34.9292" fill="black"/>
<path opacity="0.05" d="M49.8709 33.8384C49.8709 33.8384 49.6792 34.2958 49.7748 34.4402L49.8709 33.8384Z" fill="black"/>
<path opacity="0.05" d="M42.2178 33.6941C42.2178 33.6941 42.3153 34.1515 42.2178 34.2959V33.6941Z" fill="black"/>
<path d="M62.1155 44.1168C62.1155 44.1168 59.9178 46.3216 61.1584 49.5929C62.3991 52.8643 59.0322 58.3046 59.0322 58.3046C59.0322 58.3046 59.0685 58.2993 59.1373 58.2877C63.6508 57.4883 65.8931 52.3099 63.3834 48.4626C62.4479 47.0319 61.6821 45.3541 62.1155 44.1168Z" fill="#E83F5B"/>
<path opacity="0.1" d="M62.1155 44.1536C62.1155 44.1536 59.9178 46.3584 61.1584 49.6298C62.3991 52.9012 59.0322 58.341 59.0322 58.341C59.0322 58.341 59.0685 58.3357 59.1373 58.3241C63.6508 57.5247 65.8931 52.3463 63.3834 48.4989C62.4479 47.0688 61.6821 45.3909 62.1155 44.1536Z" fill="black"/>
<path d="M62.116 44.1168C62.116 44.1168 60.8753 46.819 62.116 49.0238C63.3566 51.2286 62.3261 57.4156 59.0322 58.3046" stroke="#535461" stroke-width="0.845196" stroke-miterlimit="10"/>
<path d="M66.0287 53.0339C66.0287 53.0339 63.5211 52.6334 63.2926 54.8878C63.0641 57.1421 58.4692 57.4546 58.4692 57.4546L58.5554 57.512C62.3477 60.0098 65.9735 59.1029 65.4267 55.7862C65.225 54.5537 65.2418 53.3153 66.0287 53.0339Z" fill="#E83F5B"/>
<path d="M66.0305 53.034C66.0305 53.034 64.0839 53.4624 64.2446 55.2383C64.4053 57.0141 61.3557 59.1425 58.4731 57.4552" stroke="#535461" stroke-width="0.845196" stroke-miterlimit="10"/>
<path d="M63.8238 57.5368C63.8238 57.5368 61.8488 57.1405 61.322 56.612C60.7952 56.0834 58.4252 55.1592 58.1621 55.8215C57.8989 56.4839 54.6072 58.7277 56.8453 59.124C59.0834 59.5203 62.112 59.651 62.7701 59.3875C63.4283 59.124 63.8238 57.5368 63.8238 57.5368Z" fill="#A8A8A8"/>
<path opacity="0.2" d="M56.8458 58.8769C59.0844 59.2732 62.1125 59.4039 62.7706 59.1404C63.2722 58.9391 63.6205 57.9727 63.7581 57.5226L63.8237 57.5363C63.8237 57.5363 63.4288 59.1214 62.7706 59.3854C62.1125 59.6495 59.0839 59.5177 56.8458 59.122C56.1997 59.0076 56.0148 58.7389 56.0847 58.399C56.1393 58.6208 56.3646 58.7916 56.8458 58.8769Z" fill="black"/>
</g>
<path d="M42.618 73.0757C42.386 73.0757 42.186 72.9997 42.018 72.8477C41.85 72.6877 41.766 72.5117 41.766 72.3197C41.766 72.1117 41.85 71.9357 42.018 71.7917C42.186 71.6397 42.386 71.5637 42.618 71.5637C42.858 71.5637 43.058 71.6397 43.218 71.7917C43.378 71.9357 43.458 72.1117 43.458 72.3197C43.458 72.5117 43.378 72.6877 43.218 72.8477C43.058 72.9997 42.858 73.0757 42.618 73.0757ZM42.618 80.0477C42.394 80.0477 42.21 79.9957 42.066 79.8917C41.922 79.7877 41.85 79.6717 41.85 79.5437V74.8277C41.85 74.6837 41.922 74.5677 42.066 74.4797C42.21 74.3917 42.394 74.3477 42.618 74.3477C42.834 74.3477 43.018 74.3917 43.17 74.4797C43.322 74.5677 43.398 74.6837 43.398 74.8277V79.5437C43.398 79.6717 43.322 79.7877 43.17 79.8917C43.018 79.9957 42.834 80.0477 42.618 80.0477ZM47.0405 80.1557C46.5205 80.1557 46.0485 80.0797 45.6245 79.9277C45.2085 79.7757 44.8765 79.5877 44.6285 79.3637C44.3885 79.1317 44.2685 78.8997 44.2685 78.6677C44.2685 78.5557 44.2965 78.4357 44.3525 78.3077C44.4165 78.1717 44.5005 78.0597 44.6045 77.9717C44.7085 77.8757 44.8245 77.8277 44.9525 77.8277C45.0805 77.8277 45.2005 77.8757 45.3125 77.9717C45.4245 78.0597 45.5525 78.1677 45.6965 78.2957C45.8405 78.4157 46.0165 78.5237 46.2245 78.6197C46.4325 78.7077 46.6885 78.7517 46.9925 78.7517C47.2325 78.7517 47.4525 78.7157 47.6525 78.6437C47.8605 78.5637 48.0245 78.4477 48.1445 78.2957C48.2725 78.1437 48.3365 77.9477 48.3365 77.7077C48.3365 77.4517 48.2685 77.2357 48.1325 77.0597C47.9965 76.8837 47.8125 76.7317 47.5805 76.6037C47.3485 76.4757 47.0965 76.3517 46.8245 76.2317C46.5525 76.1117 46.2765 75.9837 45.9965 75.8477C45.7245 75.7117 45.4725 75.5477 45.2405 75.3557C45.0165 75.1637 44.8325 74.9277 44.6885 74.6477C44.5525 74.3677 44.4845 74.0237 44.4845 73.6157C44.4845 73.1677 44.5685 72.7917 44.7365 72.4877C44.9125 72.1837 45.1405 71.9397 45.4205 71.7557C45.7085 71.5637 46.0245 71.4277 46.3685 71.3477C46.7125 71.2597 47.0565 71.2157 47.4005 71.2157C47.5845 71.2157 47.8005 71.2317 48.0485 71.2637C48.3045 71.2877 48.5565 71.3357 48.8045 71.4077C49.0605 71.4797 49.2685 71.5797 49.4285 71.7077C49.5965 71.8277 49.6805 71.9877 49.6805 72.1877C49.6805 72.2757 49.6565 72.3837 49.6085 72.5117C49.5685 72.6397 49.5005 72.7557 49.4045 72.8597C49.3165 72.9637 49.2005 73.0157 49.0565 73.0157C48.9285 73.0157 48.8005 72.9797 48.6725 72.9077C48.5525 72.8277 48.3925 72.7517 48.1925 72.6797C48.0005 72.5997 47.7365 72.5597 47.4005 72.5597C47.1205 72.5597 46.8765 72.5957 46.6685 72.6677C46.4605 72.7397 46.3045 72.8437 46.2005 72.9797C46.0965 73.1077 46.0445 73.2717 46.0445 73.4717C46.0445 73.6797 46.1125 73.8557 46.2485 73.9997C46.3925 74.1437 46.5765 74.2717 46.8005 74.3837C47.0325 74.4957 47.2845 74.6077 47.5565 74.7197C47.8285 74.8317 48.1005 74.9637 48.3725 75.1157C48.6525 75.2597 48.9085 75.4357 49.1405 75.6437C49.3725 75.8517 49.5565 76.1117 49.6925 76.4237C49.8285 76.7277 49.8965 77.1037 49.8965 77.5517C49.8965 78.1197 49.7725 78.5997 49.5245 78.9917C49.2765 79.3757 48.9365 79.6677 48.5045 79.8677C48.0805 80.0597 47.5925 80.1557 47.0405 80.1557ZM53.262 80.1557C52.654 80.1557 52.158 80.0477 51.774 79.8317C51.39 79.6157 51.106 79.3237 50.922 78.9557C50.738 78.5797 50.646 78.1597 50.646 77.6957V76.7357C50.646 76.2717 50.734 75.8557 50.91 75.4877C51.094 75.1117 51.378 74.8157 51.762 74.5997C52.154 74.3837 52.646 74.2757 53.238 74.2757C53.614 74.2757 53.946 74.3197 54.234 74.4077C54.522 74.4957 54.75 74.6117 54.918 74.7557C55.086 74.8997 55.17 75.0517 55.17 75.2117C55.17 75.3077 55.142 75.4157 55.086 75.5357C55.038 75.6477 54.966 75.7477 54.87 75.8357C54.782 75.9237 54.678 75.9677 54.558 75.9677C54.47 75.9677 54.378 75.9397 54.282 75.8837C54.194 75.8277 54.078 75.7717 53.934 75.7157C53.79 75.6597 53.598 75.6317 53.358 75.6317C52.95 75.6317 52.654 75.7317 52.47 75.9317C52.286 76.1237 52.194 76.3917 52.194 76.7357V77.6957C52.194 78.0397 52.286 78.3117 52.47 78.5117C52.654 78.7037 52.954 78.7997 53.37 78.7997C53.618 78.7997 53.81 78.7677 53.946 78.7037C54.082 78.6397 54.194 78.5797 54.282 78.5237C54.378 78.4677 54.474 78.4397 54.57 78.4397C54.714 78.4397 54.834 78.4797 54.93 78.5597C55.034 78.6397 55.11 78.7397 55.158 78.8597C55.214 78.9717 55.242 79.0757 55.242 79.1717C55.242 79.3317 55.154 79.4877 54.978 79.6397C54.81 79.7917 54.574 79.9157 54.27 80.0117C53.974 80.1077 53.638 80.1557 53.262 80.1557ZM56.8214 80.0477C56.5974 80.0477 56.4134 79.9957 56.2694 79.8917C56.1254 79.7877 56.0534 79.6717 56.0534 79.5437V71.5037C56.0534 71.3597 56.1254 71.2437 56.2694 71.1557C56.4134 71.0677 56.5974 71.0237 56.8214 71.0237C57.0374 71.0237 57.2214 71.0677 57.3734 71.1557C57.5254 71.2437 57.6014 71.3597 57.6014 71.5037V75.1877C57.7214 74.9557 57.9094 74.7477 58.1654 74.5637C58.4214 74.3717 58.7374 74.2757 59.1134 74.2757C59.4894 74.2757 59.8334 74.3877 60.1454 74.6117C60.4574 74.8277 60.7054 75.1197 60.8894 75.4877C61.0814 75.8557 61.1774 76.2637 61.1774 76.7117V79.5437C61.1774 79.7117 61.0974 79.8397 60.9374 79.9277C60.7774 80.0077 60.5974 80.0477 60.3974 80.0477C60.2214 80.0477 60.0494 80.0077 59.8814 79.9277C59.7134 79.8397 59.6294 79.7117 59.6294 79.5437V76.7117C59.6294 76.5277 59.5814 76.3557 59.4854 76.1957C59.3894 76.0357 59.2614 75.9037 59.1014 75.7997C58.9494 75.6877 58.7774 75.6317 58.5854 75.6317C58.4254 75.6317 58.2694 75.6757 58.1174 75.7637C57.9654 75.8517 57.8414 75.9757 57.7454 76.1357C57.6494 76.2957 57.6014 76.4877 57.6014 76.7117V79.5437C57.6014 79.6717 57.5254 79.7877 57.3734 79.8917C57.2214 79.9957 57.0374 80.0477 56.8214 80.0477ZM65.0224 80.1557C64.4544 80.1557 63.9504 80.0557 63.5104 79.8557C63.0784 79.6477 62.7384 79.3597 62.4904 78.9917C62.2424 78.6157 62.1184 78.1837 62.1184 77.6957V76.6757C62.1184 76.2437 62.2344 75.8477 62.4664 75.4877C62.7064 75.1197 63.0224 74.8277 63.4144 74.6117C63.8144 74.3877 64.2584 74.2757 64.7464 74.2757C65.1944 74.2757 65.6024 74.3717 65.9704 74.5637C66.3464 74.7557 66.6504 75.0197 66.8824 75.3557C67.1144 75.6917 67.2304 76.0837 67.2304 76.5317C67.2304 76.8757 67.1744 77.1237 67.0624 77.2757C66.9504 77.4197 66.8064 77.5117 66.6304 77.5517C66.4624 77.5837 66.2864 77.5997 66.1024 77.5997H63.6664V77.7797C63.6664 78.1237 63.7944 78.4037 64.0504 78.6197C64.3144 78.8277 64.6544 78.9317 65.0704 78.9317C65.3344 78.9317 65.5544 78.8917 65.7304 78.8117C65.9064 78.7317 66.0584 78.6557 66.1864 78.5837C66.3144 78.5117 66.4344 78.4757 66.5464 78.4757C66.6664 78.4757 66.7704 78.5157 66.8584 78.5957C66.9464 78.6757 67.0144 78.7717 67.0624 78.8837C67.1104 78.9877 67.1344 79.0797 67.1344 79.1597C67.1344 79.2957 67.0464 79.4437 66.8704 79.6037C66.7024 79.7557 66.4584 79.8877 66.1384 79.9997C65.8264 80.1037 65.4544 80.1557 65.0224 80.1557ZM63.6664 76.6877H65.4184C65.5544 76.6877 65.6464 76.6677 65.6944 76.6277C65.7504 76.5797 65.7784 76.4917 65.7784 76.3637C65.7784 76.1797 65.7264 76.0157 65.6224 75.8717C65.5264 75.7277 65.3984 75.6157 65.2384 75.5357C65.0864 75.4557 64.9144 75.4157 64.7224 75.4157C64.5384 75.4157 64.3664 75.4557 64.2064 75.5357C64.0464 75.6077 63.9144 75.7157 63.8104 75.8597C63.7144 75.9957 63.6664 76.1597 63.6664 76.3517V76.6877ZM70.0546 80.1557C69.6786 80.1557 69.3306 80.0397 69.0106 79.8077C68.6906 79.5757 68.4346 79.2717 68.2426 78.8957C68.0506 78.5197 67.9546 78.1197 67.9546 77.6957V76.7117C67.9546 76.2637 68.0506 75.8557 68.2426 75.4877C68.4346 75.1197 68.6906 74.8277 69.0106 74.6117C69.3306 74.3877 69.6866 74.2757 70.0786 74.2757C70.4546 74.2757 70.7746 74.3717 71.0386 74.5637C71.3026 74.7477 71.4986 74.9557 71.6266 75.1877V71.5037C71.6266 71.3597 71.7026 71.2437 71.8546 71.1557C72.0066 71.0677 72.1946 71.0237 72.4186 71.0237C72.6346 71.0237 72.8146 71.0677 72.9586 71.1557C73.1026 71.2437 73.1746 71.3597 73.1746 71.5037V79.5437C73.1746 79.6717 73.1026 79.7877 72.9586 79.8917C72.8146 79.9957 72.6346 80.0477 72.4186 80.0477C72.2266 80.0477 72.0626 79.9957 71.9266 79.8917C71.7906 79.7877 71.7226 79.6717 71.7226 79.5437V79.2077C71.6026 79.4557 71.3866 79.6757 71.0746 79.8677C70.7706 80.0597 70.4306 80.1557 70.0546 80.1557ZM70.5466 78.7997C70.7546 78.7997 70.9386 78.7437 71.0986 78.6317C71.2586 78.5117 71.3866 78.3837 71.4826 78.2477C71.5786 78.1037 71.6266 77.9917 71.6266 77.9117V76.7117C71.6266 76.4877 71.5706 76.2957 71.4586 76.1357C71.3546 75.9757 71.2186 75.8517 71.0506 75.7637C70.8906 75.6757 70.7266 75.6317 70.5586 75.6317C70.3666 75.6317 70.1866 75.6877 70.0186 75.7997C69.8586 75.9037 69.7306 76.0357 69.6346 76.1957C69.5466 76.3557 69.5026 76.5277 69.5026 76.7117V77.6957C69.5026 77.8797 69.5466 78.0557 69.6346 78.2237C69.7306 78.3917 69.8586 78.5317 70.0186 78.6437C70.1786 78.7477 70.3546 78.7997 70.5466 78.7997ZM76.9373 80.1557C76.4573 80.1557 76.0173 80.0437 75.6173 79.8197C75.2253 79.5877 74.9093 79.2877 74.6693 78.9197C74.4373 78.5437 74.3213 78.1437 74.3213 77.7197V74.8397C74.3213 74.7197 74.3973 74.6077 74.5493 74.5037C74.7093 74.3997 74.8933 74.3477 75.1013 74.3477C75.3093 74.3477 75.4893 74.3997 75.6413 74.5037C75.7933 74.6077 75.8693 74.7197 75.8693 74.8397V77.7197C75.8693 77.9037 75.9173 78.0757 76.0133 78.2357C76.1093 78.3957 76.2373 78.5317 76.3973 78.6437C76.5573 78.7477 76.7333 78.7997 76.9253 78.7997C77.1253 78.7997 77.3013 78.7477 77.4533 78.6437C77.6133 78.5397 77.7413 78.4037 77.8373 78.2357C77.9333 78.0677 77.9813 77.8957 77.9813 77.7197V74.8277C77.9813 74.6997 78.0573 74.5877 78.2093 74.4917C78.3693 74.3957 78.5493 74.3477 78.7493 74.3477C78.9813 74.3477 79.1693 74.3957 79.3133 74.4917C79.4573 74.5877 79.5293 74.6997 79.5293 74.8277V77.7197C79.5293 78.1517 79.4093 78.5557 79.1693 78.9317C78.9373 79.2997 78.6213 79.5957 78.2213 79.8197C77.8293 80.0437 77.4013 80.1557 76.9373 80.1557ZM81.5502 80.0477C81.3262 80.0477 81.1422 79.9957 80.9982 79.8917C80.8542 79.7877 80.7822 79.6717 80.7822 79.5437V71.5037C80.7822 71.3597 80.8542 71.2437 80.9982 71.1557C81.1422 71.0677 81.3262 71.0237 81.5502 71.0237C81.7662 71.0237 81.9502 71.0677 82.1022 71.1557C82.2542 71.2437 82.3302 71.3597 82.3302 71.5037V79.5437C82.3302 79.6717 82.2542 79.7877 82.1022 79.8917C81.9502 79.9957 81.7662 80.0477 81.5502 80.0477ZM86.3271 80.1557C85.7591 80.1557 85.2551 80.0557 84.8151 79.8557C84.3831 79.6477 84.0431 79.3597 83.7951 78.9917C83.5471 78.6157 83.4231 78.1837 83.4231 77.6957V76.6757C83.4231 76.2437 83.5391 75.8477 83.7711 75.4877C84.0111 75.1197 84.3271 74.8277 84.7191 74.6117C85.1191 74.3877 85.5631 74.2757 86.0511 74.2757C86.4991 74.2757 86.9071 74.3717 87.2751 74.5637C87.6511 74.7557 87.9551 75.0197 88.1871 75.3557C88.4191 75.6917 88.5351 76.0837 88.5351 76.5317C88.5351 76.8757 88.4791 77.1237 88.3671 77.2757C88.2551 77.4197 88.1111 77.5117 87.9351 77.5517C87.7671 77.5837 87.5911 77.5997 87.4071 77.5997H84.9711V77.7797C84.9711 78.1237 85.0991 78.4037 85.3551 78.6197C85.6191 78.8277 85.9591 78.9317 86.3751 78.9317C86.6391 78.9317 86.8591 78.8917 87.0351 78.8117C87.2111 78.7317 87.3631 78.6557 87.4911 78.5837C87.6191 78.5117 87.7391 78.4757 87.8511 78.4757C87.9711 78.4757 88.0751 78.5157 88.1631 78.5957C88.2511 78.6757 88.3191 78.7717 88.3671 78.8837C88.4151 78.9877 88.4391 79.0797 88.4391 79.1597C88.4391 79.2957 88.3511 79.4437 88.1751 79.6037C88.0071 79.7557 87.7631 79.8877 87.4431 79.9997C87.1311 80.1037 86.7591 80.1557 86.3271 80.1557ZM84.9711 76.6877H86.7231C86.8591 76.6877 86.9511 76.6677 86.9991 76.6277C87.0551 76.5797 87.0831 76.4917 87.0831 76.3637C87.0831 76.1797 87.0311 76.0157 86.9271 75.8717C86.8311 75.7277 86.7031 75.6157 86.5431 75.5357C86.3911 75.4557 86.2191 75.4157 86.0271 75.4157C85.8431 75.4157 85.6711 75.4557 85.5111 75.5357C85.3511 75.6077 85.2191 75.7157 85.1151 75.8597C85.0191 75.9957 84.9711 76.1597 84.9711 76.3517V76.6877Z" fill="#E83F5B"/>
<defs>
<linearGradient id="paint0_linear_1383_770" x1="38.9311" y1="60.0377" x2="38.9311" y2="21.8859" gradientUnits="userSpaceOnUse">
<stop stop-color="#808080" stop-opacity="0.25"/>
<stop offset="0.54" stop-color="#808080" stop-opacity="0.12"/>
<stop offset="1" stop-color="#808080" stop-opacity="0.1"/>
</linearGradient>
<linearGradient id="paint1_linear_1383_770" x1="9203.57" y1="13129.4" x2="9203.57" y2="3965.83" gradientUnits="userSpaceOnUse">
<stop stop-color="#808080" stop-opacity="0.25"/>
<stop offset="0.54" stop-color="#808080" stop-opacity="0.12"/>
<stop offset="1" stop-color="#808080" stop-opacity="0.1"/>
</linearGradient>
<clipPath id="clip0_1383_770">
<rect width="54.518" height="40.6965" fill="white" transform="translate(11.5171 20.705)"/>
</clipPath>
</defs>
</svg>
