<svg width="19" height="19" viewBox="0 0 19 19" fill="none" xmlns="http://www.w3.org/2000/svg">
<path d="M17.2188 9.5C17.2188 11.2812 13.7631 14.8438 9.5 14.8438C5.23688 14.8438 1.78125 11.2812 1.78125 9.5C1.78125 7.71875 5.23688 4.15625 9.5 4.15625C13.7631 4.15625 17.2188 7.71875 17.2188 9.5Z" stroke="#C31C5A" stroke-width="2" stroke-linejoin="round"/>
<path d="M12.4688 9.5C12.4688 10.2874 12.156 11.0425 11.5992 11.5992C11.0425 12.156 10.2874 12.4688 9.5 12.4688C8.71264 12.4688 7.95753 12.156 7.40078 11.5992C6.84403 11.0425 6.53125 10.2874 6.53125 9.5C6.53125 8.71264 6.84403 7.95753 7.40078 7.40078C7.95753 6.84403 8.71264 6.53125 9.5 6.53125C10.2874 6.53125 11.0425 6.84403 11.5992 7.40078C12.156 7.95753 12.4688 8.71264 12.4688 9.5V9.5Z" stroke="#C31C5A" stroke-width="2" stroke-linejoin="round"/>
</svg>
