<svg width="32" height="34" viewBox="0 0 32 34" fill="none" xmlns="http://www.w3.org/2000/svg">
<g id="akar-icons:search" clip-path="url(#clip0_2295_363)">
<path id="Vector" d="M29.7076 31.9595L21.7058 23.4463M24.8957 15.1468C24.8957 18.262 23.7466 21.2496 21.7012 23.4524C19.6558 25.6552 16.8816 26.8927 13.9889 26.8927C11.0962 26.8927 8.32201 25.6552 6.27658 23.4524C4.23114 21.2496 3.08203 18.262 3.08203 15.1468C3.08203 12.0317 4.23114 9.04405 6.27658 6.84128C8.32201 4.63851 11.0962 3.401 13.9889 3.401C16.8816 3.401 19.6558 4.63851 21.7012 6.84128C23.7466 9.04405 24.8957 12.0317 24.8957 15.1468Z" stroke="#1F2041" stroke-width="3.63553" stroke-linecap="round"/>
</g>
<defs>
<clipPath id="clip0_2295_363">
<rect width="30.7958" height="33.1647" fill="white" transform="translate(0.515625 0.637207)"/>
</clipPath>
</defs>
</svg>
