<svg width="34" height="34" viewBox="0 0 34 34" fill="none" xmlns="http://www.w3.org/2000/svg">
<g id="fluent:calendar-today-24-regular">
<path id="Vector" d="M29.3324 8.72996C29.3324 7.526 28.8542 6.37135 28.0028 5.52003C27.1515 4.6687 25.9969 4.19043 24.7929 4.19043H8.72996C7.526 4.19043 6.37135 4.6687 5.52003 5.52003C4.6687 6.37135 4.19043 7.526 4.19043 8.72996V24.7929C4.19043 25.9969 4.6687 27.1515 5.52003 28.0028C6.37135 28.8542 7.526 29.3324 8.72996 29.3324H14.3171V27.2373H8.72996C8.08167 27.2373 7.45994 26.9797 7.00153 26.5213C6.54313 26.0629 6.2856 25.4412 6.2856 24.7929V11.8727H27.2373V24.7929C27.2373 25.4412 26.9797 26.0629 26.5213 26.5213C26.0629 26.9797 25.4412 27.2373 24.7929 27.2373H19.2058V29.3324H24.7929C25.9969 29.3324 27.1515 28.8542 28.0028 28.0028C28.8542 27.1515 29.3324 25.9969 29.3324 24.7929V8.72996ZM8.72996 6.2856H24.7929C26.1422 6.2856 27.2373 7.38067 27.2373 8.72996V9.77754H6.2856V8.72996C6.2856 7.38067 7.38067 6.2856 8.72996 6.2856ZM18.5074 16.4122C18.5074 16.8753 18.3235 17.3194 17.996 17.6468C17.6686 17.9743 17.2245 18.1582 16.7614 18.1582C16.2984 18.1582 15.8543 17.9743 15.5268 17.6468C15.1994 17.3194 15.0155 16.8753 15.0155 16.4122C15.0155 15.9492 15.1994 15.5051 15.5268 15.1777C15.8543 14.8502 16.2984 14.6663 16.7614 14.6663C17.2245 14.6663 17.6686 14.8502 17.996 15.1777C18.3235 15.5051 18.5074 15.9492 18.5074 16.4122ZM19.2086 25.5751C19.4178 25.7467 19.6853 25.8307 19.9551 25.8095C20.2249 25.7883 20.4759 25.6635 20.6558 25.4613C20.8356 25.2591 20.9302 24.9951 20.9197 24.7247C20.9093 24.4543 20.7947 24.1985 20.5998 24.0107L17.457 21.2172C17.2653 21.0469 17.0178 20.9529 16.7614 20.9529C16.505 20.9529 16.2576 21.0469 16.0658 21.2172L12.9231 24.0107C12.7282 24.1985 12.6136 24.4543 12.6031 24.7247C12.5927 24.9951 12.6873 25.2591 12.8671 25.4613C13.0469 25.6635 13.298 25.7883 13.5678 25.8095C13.8375 25.8307 14.1051 25.7467 14.3143 25.5751L15.7139 24.332V29.6816C15.7139 29.8192 15.7409 29.9554 15.7936 30.0825C15.8462 30.2096 15.9234 30.3251 16.0207 30.4224C16.118 30.5197 16.2334 30.5968 16.3605 30.6495C16.4876 30.7021 16.6239 30.7292 16.7614 30.7292C16.899 30.7292 17.0352 30.7021 17.1623 30.6495C17.2894 30.5968 17.4049 30.5197 17.5022 30.4224C17.5995 30.3251 17.6766 30.2096 17.7293 30.0825C17.7819 29.9554 17.809 29.8192 17.809 29.6816V24.332L19.2086 25.5751Z" fill="#DBDBDC"/>
</g>
</svg>
